<svg width="23" height="16" viewBox="0 0 23 16" fill="none" xmlns="http://www.w3.org/2000/svg">
<path fill-rule="evenodd" clip-rule="evenodd" d="M1.15 9.14286H21.85C22.4848 9.14286 23 8.63086 23 8C23 7.36914 22.4848 6.85714 21.85 6.85714H1.15C0.5152 6.85714 0 7.36914 0 8C0 8.63086 0.5152 9.14286 1.15 9.14286ZM1.15 2.28571H21.85C22.4848 2.28571 23 1.77371 23 1.14286C23 0.512 22.4848 0 21.85 0H1.15C0.5152 0 0 0.512 0 1.14286C0 1.77371 0.5152 2.28571 1.15 2.28571ZM1.15 16H21.85C22.4848 16 23 15.488 23 14.8571C23 14.2263 22.4848 13.7143 21.85 13.7143H1.15C0.5152 13.7143 0 14.2263 0 14.8571C0 15.488 0.5152 16 1.15 16Z" fill="white"/>
</svg>
