<svg width="120" height="61" viewBox="0 0 120 61" fill="none" xmlns="http://www.w3.org/2000/svg">
<path fill-rule="evenodd" clip-rule="evenodd" d="M30 10.9995C31.6778 11.0094 33.3534 10.8764 35.0085 10.6018H35.2627V10.551C39.7288 9.74723 42.6186 7.95347 45.4322 6.20201L45.5127 6.15241C48.8724 4.08087 52.0378 2.12913 57.839 1.74299H58.4068H59.9915C67.2104 1.69253 70.7537 3.874 74.5078 6.18527L74.5763 6.2274L74.6823 6.29265C78.4291 8.59969 82.3266 10.9995 90 10.9995C97.7458 10.9995 101.695 8.58805 105.449 6.2274C107.091 5.13979 108.82 4.18894 110.619 3.38445C110.611 3.4179 110.611 3.45254 110.619 3.48599L110.915 3.35061C110.915 3.35061 110.915 3.29984 110.856 3.27446C111.441 3.03755 112.059 2.82602 112.703 2.63141C112.703 2.63141 112.703 2.68218 112.746 2.6991H112.864C112.861 2.67385 112.861 2.6482 112.864 2.62295C115.186 1.97192 117.589 1.65846 120 1.69223V0C112.254 0 108.339 2.43681 104.551 4.79746C100.763 7.15812 97.2542 9.30725 90 9.30725C82.7458 9.30725 79.1949 7.12428 75.4237 4.79746L75.2203 4.67055C75.2261 4.62277 75.2261 4.57448 75.2203 4.52671L74.0593 3.82443V3.96827L73.5424 3.66367C73.579 3.63621 73.6058 3.59762 73.6186 3.55368L73.4237 3.38445C73.3779 3.40267 73.3372 3.4317 73.3051 3.46907C72.6864 3.13908 72.0339 2.79218 71.3729 2.45373L71.4237 2.3522L70.9492 2.13221C70.9121 2.16181 70.8685 2.18212 70.822 2.19143C69.995 1.80906 69.146 1.47568 68.2797 1.19302V1.10841L67.6271 0.913803L67.5763 0.981492C67.1186 0.846114 66.6441 0.727658 66.1441 0.617663V0.566896L65.839 0.507668C65.8353 0.524392 65.8353 0.541712 65.839 0.558435C64.7426 0.333243 63.633 0.17781 62.5169 0.0930725H62.0254C61.3729 0 60.7034 0 60 0C52.2542 0 48.3051 2.43681 44.5508 4.79746C40.7966 7.15812 37.2881 9.30725 30.1186 9.30725H29.7373C27.5175 9.31432 25.3065 9.02984 23.161 8.46114V8.38499L22.6441 8.23269C22.6469 8.25233 22.6469 8.27227 22.6441 8.29191H22.5932L21.8898 8.06346L21.7966 7.94501L21.1102 7.67425V7.78425L20.7712 7.65733C20.7341 7.61372 20.6833 7.5839 20.6271 7.57272V7.61502C19.8729 7.30196 19.1695 6.95506 18.4831 6.59123C18.4556 6.51459 18.4155 6.44309 18.3644 6.3797L18.1356 6.25278C18.0747 6.23492 18.01 6.23492 17.9492 6.25278C17.9531 6.26947 17.9531 6.28686 17.9492 6.30355L17.2966 5.9228L17.4068 5.82972L16.4915 5.27975C16.4874 5.33608 16.4874 5.39264 16.4915 5.44897L15.4237 4.79746C12 2.64834 8.47458 0.44844 2 0.0676891H1.38983C0.957627 0 0.483051 0 0 0V1.69223C7.25424 1.69223 10.7966 3.89212 14.5508 6.2274C18.3051 8.56267 22.2542 10.9995 30 10.9995ZM17.2458 5.9228C17.0763 5.82974 16.9153 5.72821 16.7543 5.62669L16.7542 5.62666C16.9492 5.55051 17.1271 5.60973 17.2458 5.9228ZM29.9831 22.996C33.004 23.0488 36.0109 22.5747 38.8679 21.5952V21.6711L39.3252 21.5108V21.4011C41.4502 20.5333 43.4843 19.4592 45.3981 18.1942L45.4176 18.1821C49.1541 15.8658 52.6947 13.6709 59.9407 13.6709C67.1448 13.6709 70.7029 15.8571 74.449 18.1588L74.5342 18.2111L74.6623 18.2898C78.4008 20.5872 82.3207 22.996 89.9746 22.996C90.991 22.996 91.9396 22.996 92.8289 22.8694H93.1846C95.6685 22.6485 98.0999 22.0272 100.384 21.0297C100.409 21.0619 100.441 21.0879 100.477 21.1057L100.621 21.0466C100.627 21.0131 100.627 20.9788 100.621 20.9454C101.18 20.6922 101.705 20.4306 102.222 20.1605C102.213 20.2136 102.213 20.2678 102.222 20.3209L102.654 20.0846C102.649 20.0425 102.649 20 102.654 19.958C103.428 19.5331 104.167 19.088 104.893 18.6501L104.893 18.6499C105.105 18.5225 105.315 18.3957 105.525 18.2702C108.778 16.2533 111.886 14.3292 117.383 13.8566L118.23 13.7891C118.507 13.7891 118.789 13.7769 119.077 13.7646L119.077 13.7646C119.377 13.7516 119.684 13.7384 120 13.7384V12.0506C112.259 12.0506 108.346 14.4811 104.56 16.8356C100.774 19.19 97.2671 21.3589 90.0169 21.3589C87.5609 21.3945 85.1128 21.0733 82.7499 20.4053L82.8007 20.3377L82.301 20.1774L82.157 20.2027C79.7621 19.3541 77.4853 18.2057 75.3811 16.7849C73.994 15.8849 72.5544 15.0677 71.07 14.3376C71.0743 14.2955 71.0743 14.2531 71.07 14.211L70.6635 14.0338L70.6126 14.1266C70.0536 13.865 69.4608 13.6287 68.8425 13.4093C68.8711 13.3938 68.8946 13.3703 68.9102 13.3418L68.6392 13.249C68.6538 13.2881 68.6738 13.325 68.6985 13.3587C66.5123 12.6107 64.2313 12.1732 61.9226 12.0591H61.262H59.9831C52.2417 12.0591 48.3286 14.4895 44.5426 16.844C40.7566 19.1985 37.2671 21.3082 29.9831 21.3082C28.2535 21.3185 26.5267 21.1687 24.825 20.861V20.8103L24.1728 20.6669C24.1713 20.6922 24.1713 20.7175 24.1728 20.7428L23.8171 20.6247L22.9701 20.3884V20.4643L22.5127 20.3293C22.5509 20.3229 22.5863 20.3052 22.6143 20.2787L22.3602 20.1943V20.2871C22.0384 20.1858 21.725 20.0761 21.4116 19.958C21.4165 19.9272 21.4165 19.8959 21.4116 19.8652L20.9797 19.6964V19.7892C19.6371 19.2389 18.3401 18.5843 17.1005 17.8314C17.1089 17.7811 17.1089 17.7297 17.1005 17.6795L16.7956 17.5022C16.79 17.5612 16.79 17.6205 16.7956 17.6795L15.4066 16.8356L15.2372 16.7343C15.2509 16.6846 15.2509 16.6321 15.2372 16.5824C15.1532 16.5146 15.0331 16.5146 14.9492 16.5824C14.4918 16.2955 14.0344 16.017 13.5686 15.7385V15.5781L13.2552 15.4009V15.5275C12.088 14.8487 10.8738 14.2537 9.62168 13.7469C9.69863 13.7211 9.78189 13.7211 9.85884 13.7469L9.20666 13.5021V13.5865C7.52643 12.9617 5.77801 12.5368 3.99774 12.3207H3.72671C2.49203 12.1396 1.24755 12.0325 0 12V13.6878C7.22953 13.6878 10.7704 15.8779 14.5106 18.1913L14.5426 18.2111L14.5961 18.2442C18.3323 20.5552 22.2785 22.996 29.9831 22.996ZM104.425 41.7793C108.209 39.4276 112.12 37 119.856 37L119.848 37.4046L120 37.4636V38.0199C119.945 38.0349 119.893 38.0607 119.848 38.0958V38.7111C117.298 38.6667 114.756 39.0164 112.314 39.7479V39.7563C109.847 40.5999 107.505 41.7678 105.348 43.2291C105.137 43.3551 104.926 43.4815 104.716 43.6077L104.716 43.6078C103.814 44.1485 102.916 44.6874 101.962 45.1931C102.021 45.1793 102.081 45.2028 102.115 45.2521L101.903 45.3617V45.2184C100.146 46.1615 98.2697 46.8674 96.325 47.3172C96.3298 47.3395 96.3298 47.3624 96.325 47.3847H96.215C96.2126 47.3679 96.2126 47.3509 96.215 47.3341C94.1961 47.7702 92.1357 47.9879 90.0698 47.9831H89.9175C82.4009 47.9831 78.4879 45.62 74.8092 43.3984L74.4868 43.2038L74.2857 43.0825C70.585 40.8501 67.0531 38.7195 59.9281 38.7195C52.6772 38.7195 49.0798 40.9513 45.3994 43.2346L45.3947 43.2375C41.7126 45.5218 37.8952 47.882 30.565 48H29.964C22.2366 48 18.2924 45.5529 14.5466 43.2289L14.5334 43.2207C10.7837 40.8943 7.24554 38.7027 0 38.7027V37.0169H0.846441C3.41158 37.0554 5.9565 37.4759 8.3967 38.2644C8.40128 38.2365 8.40128 38.208 8.3967 38.1801L9.02307 38.3908V38.492C11.0809 39.2795 13.0475 40.2856 14.8889 41.4927C14.8931 41.4366 14.8931 41.3803 14.8889 41.3241L15.4222 41.6529C15.3916 41.6871 15.3685 41.7273 15.3544 41.7709H15.4306C17.9234 43.4871 20.6872 44.7754 23.6072 45.5823C23.6156 45.585 23.624 45.5873 23.6326 45.5893L23.6072 45.5823C23.5656 45.5686 23.5278 45.545 23.4972 45.5134L23.8866 45.6061C23.8251 45.6182 23.7618 45.6182 23.7004 45.6061C25.7524 46.0883 27.8557 46.3204 29.964 46.2973C37.2434 46.2973 40.7477 44.1142 44.4974 41.7709C48.2472 39.4276 52.1916 37 59.9196 37.0421C62.4374 37.0086 64.9475 37.3264 67.3767 37.9862V37.9103L67.6899 37.9946L67.6391 38.0621C69.7981 38.7216 71.8612 39.6596 73.7758 40.8521V40.7088L73.9028 40.7847C73.9074 40.8323 73.9074 40.8803 73.9028 40.928L75.3756 41.7962L75.482 41.8614C79.0983 44.0792 82.4837 46.1554 89.1895 46.2973H90.036C97.1799 46.2636 100.642 44.131 104.425 41.7793ZM112.314 39.8153C112.319 39.7959 112.319 39.7757 112.314 39.7563V39.8153ZM87.2481 59.1519C88.1216 59.2275 89.0544 59.2779 90.0636 59.2779C97.323 59.2779 100.749 57.2534 104.54 54.9097C108.331 52.566 112.249 50.1467 120 50.1467V51.8268H118.66H118.406C117.063 51.8798 115.727 52.0427 114.411 52.314V52.3644H114.276V52.314C110.561 53.1121 108.068 54.6493 105.473 56.2538C102.03 58.4379 98.4 60.6136 91.853 60.958C91.3781 61 90.8947 61 90.3859 61H90.0297C82.3153 61 78.3641 58.5703 74.6232 56.2699L74.5696 56.237L74.5376 56.2173C70.7925 53.9144 67.2472 51.7344 60.0085 51.7344C57.2467 51.6797 54.4959 52.0945 51.8756 52.9609V53.0281L51.511 53.1541C51.4798 53.1432 51.453 53.1225 51.4346 53.0953C49.8104 53.7167 48.2512 54.4932 46.7788 55.4138C46.8212 55.4558 46.8212 55.4978 46.8212 55.5482L46.3548 55.8254C46.3779 55.7727 46.4203 55.7307 46.4735 55.7078L46.4226 55.6406L45.4643 56.2286C45.4685 56.2789 45.4685 56.3295 45.4643 56.3798L45.0742 56.6234C45.0418 56.5874 45.0185 56.5442 45.0064 56.4974L44.8113 56.6234H44.9216V56.6822L44.5399 56.909C44.5124 56.8728 44.4896 56.8333 44.4721 56.7914C43.9463 57.119 43.4035 57.4298 42.8438 57.7407V57.9087L42.6996 57.9927C42.7084 57.9157 42.7445 57.8442 42.8014 57.7911C38.9174 59.9932 34.4945 61.0892 30.0212 60.958C22.2791 60.958 18.3273 58.5192 14.5744 56.2032L14.5611 56.195C10.8042 53.8765 7.25936 51.6924 0 51.6924V50.0123C4.12124 49.8913 8.20616 50.8075 11.8728 52.6752C11.864 52.6365 11.864 52.5964 11.8728 52.5576L12.229 52.692C12.2331 52.7339 12.2331 52.7761 12.229 52.818C12.3686 52.8958 12.5122 52.9736 12.6571 53.0521L12.6572 53.0522L12.6572 53.0522L12.6572 53.0522L12.6573 53.0522L12.6574 53.0523L12.6575 53.0523C12.9349 53.2026 13.2168 53.3553 13.4841 53.5153V53.3641L13.8827 53.5993V53.7001L13.8403 53.7421L15.5364 54.7753C18.1908 56.4134 20.7519 57.9843 24.5936 58.7655C24.5912 58.7488 24.5912 58.7318 24.5936 58.7151L24.865 58.7739V58.8327C26.5661 59.139 28.2923 59.288 30.0212 59.2779C37.3145 59.2779 40.8254 57.119 44.5823 54.7753C48.3392 52.4316 52.2912 50.0123 60.0424 50.0123C64.4236 49.8733 68.761 50.9126 72.5936 53.0197L72.7124 52.944V53.0953C73.6707 53.6665 74.5781 54.2209 75.477 54.7753L75.4879 54.782C78.7065 56.7536 81.7587 58.6233 87.0954 59.1519H87.2481ZM24.37 58.4588C24.48 58.5488 24.57 58.5588 24.63 58.5188L24.37 58.4588ZM20.6468 19.5645L20.3568 19.4245C20.3521 19.4442 20.3521 19.4648 20.3568 19.4845C20.431 19.5631 20.5427 19.594 20.6468 19.5645ZM16.41 30.4188L16.59 30.5288C16.586 30.532 16.5819 30.5352 16.5778 30.5382C17.921 31.3511 19.3175 32.0739 20.7582 32.7017C20.77 32.6682 20.7871 32.6369 20.8089 32.6089L21.0457 32.7101V32.8198C21.5953 33.0391 22.1702 33.2331 22.779 33.4103L22.7368 33.3175C22.9989 33.4018 23.261 33.4778 23.5316 33.5452V33.6043C24.8024 33.9211 26.0979 34.13 27.4042 34.2285C27.4483 34.233 27.4927 34.2377 27.5375 34.2424C27.8269 34.2728 28.1281 34.3044 28.4357 34.3044H29.9324C37.2041 34.3044 40.6623 32.1534 44.4419 29.7998C48.2215 27.4463 52.128 25.0169 59.8563 25.0169C61.0967 25.0137 62.3362 25.0841 63.5682 25.2278H63.7035C68.9797 25.8857 72.159 27.8597 75.2537 29.783C77.3542 31.2031 79.6272 32.3512 82.018 33.1994V33.1403V33.0982L82.314 33.2163C82.3188 33.2413 82.3188 33.2671 82.314 33.2922L82.6437 33.385C82.6389 33.3627 82.6389 33.3397 82.6437 33.3175L82.8636 33.3765V33.4525C83.5804 33.6695 84.3087 33.847 85.0451 33.9839V33.9333C85.4256 34.0092 85.8484 34.0683 86.2711 34.1273H86.3219C87.0913 34.2285 87.9453 34.3129 88.8585 34.3129H89.9408C97.0772 34.2791 100.536 32.1449 104.315 29.7914C108.095 27.4379 112.001 25.0084 119.729 25.0084L120 25V26.6871H119.662C118.594 26.6865 117.527 26.7456 116.466 26.8643H116.322C113.514 27.1725 110.796 28.0326 108.323 29.3949C108.289 29.4579 108.258 29.5227 108.23 29.589L107.917 29.7155V29.5805C107.016 30.0793 106.162 30.6098 105.294 31.1489L105.211 31.2002C104.929 31.3694 104.65 31.5392 104.372 31.7084C103.418 32.2899 102.471 32.8661 101.423 33.4018C101.423 33.4069 101.43 33.4066 101.436 33.4063C101.452 33.4055 101.471 33.4046 101.423 33.4693C101.356 33.5621 101.22 33.5621 101.077 33.5621L100.409 33.8742V33.9923L99.9605 34.1779V34.0936C98.4575 34.7303 96.8897 35.2026 95.2847 35.5023V35.5529H95.0733C93.3397 35.8559 91.5824 36.0027 89.8224 35.9916C82.1815 35.9916 78.2682 33.5837 74.536 31.2873L74.4081 31.2086L74.3812 31.192C70.6201 28.8784 67.0853 26.704 59.8563 26.704C52.6225 26.704 49.0879 28.898 45.3577 31.2133L45.3382 31.2255C42.0321 33.2837 38.6246 35.4011 32.655 35.8988H32.469C31.6742 35.9663 30.8286 36 29.9324 36C22.2408 36 18.3013 33.5602 14.5715 31.2501L14.518 31.217L14.4861 31.1972C10.7521 28.8847 7.2173 26.6956 0 26.6956V25.0084H0.321308C3.45258 24.9824 6.56115 25.5403 9.48703 26.6534C9.43616 26.6128 9.3956 26.5607 9.36866 26.5015L9.53777 26.569V26.6618C10.3725 26.9903 11.1883 27.3649 11.9814 27.7837C11.9855 27.7388 11.9855 27.6937 11.9814 27.6488L12.1421 27.7331C12.1018 27.7732 12.0466 27.7946 11.9899 27.7922C13.2074 28.4333 14.3236 29.1166 15.4228 29.8083C15.7484 30.023 16.0776 30.2323 16.41 30.436V30.4188ZM77.44 5.42765L77.56 5.50765C77.53 5.54765 77.44 5.59765 77.44 5.55765V5.42765ZM98.375 35.55L98.625 35.47C98.5786 35.4433 98.5214 35.4433 98.475 35.47C98.4357 35.4883 98.4014 35.5157 98.375 35.55Z" fill="#ECEDED"/>
<path fill-rule="evenodd" clip-rule="evenodd" d="M59.9502 4.68154C60.478 4.68154 60.9056 4.24681 60.9056 3.71048V0.971063C60.9056 0.434733 60.478 0 59.9502 0C59.4224 0 58.9948 0.434733 58.9948 0.971063V3.71048C58.9948 4.24681 59.4225 4.68154 59.9502 4.68154ZM66.275 6.77529C66.0884 6.96491 65.8438 7.05971 65.5993 7.05971C65.3549 7.05971 65.1103 6.96479 64.9237 6.77529C64.5506 6.39618 64.5506 5.78136 64.9237 5.40213L66.8297 3.465C67.2028 3.08577 67.8076 3.08577 68.1809 3.465C68.554 3.84423 68.554 4.45905 68.1809 4.83828L66.275 6.77529ZM56.547 18.912V17.174C54.8493 16.0236 53.8167 14.0864 53.817 11.9873C53.817 8.54972 56.5684 5.75325 59.9504 5.75325C63.3323 5.75325 66.0839 8.54996 66.0839 11.9873C66.0839 14.0862 65.051 16.0233 63.3537 17.1738V18.9144C63.3564 18.9441 63.3581 18.9743 63.3581 19.0046V22.3309C63.3581 22.8672 62.9304 23.3019 62.4027 23.3019H57.4978C56.97 23.3019 56.5424 22.8672 56.5424 22.3309V19.0046C56.5424 18.9733 56.5441 18.9426 56.547 18.912ZM58.4531 21.3599H61.4471V19.9757H58.4531V21.3599ZM59.9501 7.6955C62.2785 7.6955 64.1728 9.62071 64.1728 11.9874C64.1728 13.5702 63.3195 15.0197 61.9458 15.7701C61.6359 15.9395 61.4427 16.268 61.4427 16.6254V18.0337H60.9227V14.5045C60.9227 13.9682 60.4951 13.5334 59.9673 13.5334C59.4395 13.5334 59.0119 13.9682 59.0119 14.5045V18.0337H58.4577V16.6256C58.4577 16.2682 58.2645 15.9396 57.9546 15.7703C56.5808 15.0197 55.7275 13.5702 55.7275 11.9873C55.7275 9.62071 57.6218 7.6955 59.9501 7.6955ZM57.9601 24.7878C57.9601 24.2515 58.3877 23.8167 58.9155 23.8167H60.9846C61.5124 23.8167 61.94 24.2515 61.94 24.7878C61.94 25.3241 61.5124 25.7588 60.9846 25.7588H58.9155C58.3877 25.7588 57.9601 25.3241 57.9601 24.7878ZM49.2657 12.8015H51.9609C52.4888 12.8015 52.9164 12.3668 52.9164 11.8305C52.9164 11.2941 52.4888 10.8594 51.9609 10.8594H49.2657C48.7379 10.8594 48.3103 11.2941 48.3103 11.8305C48.3103 12.3668 48.738 12.8015 49.2657 12.8015ZM67.9395 12.8015C67.4116 12.8015 66.984 12.3668 66.984 11.8305C66.984 11.294 67.4118 10.8594 67.9395 10.8594H70.6345C71.1623 10.8594 71.59 11.2941 71.59 11.8305C71.59 12.3668 71.1623 12.8015 70.6345 12.8015H67.9395ZM53.6252 16.8855L51.7195 18.8224C51.3464 19.2016 51.3464 19.8165 51.7195 20.1956C51.9062 20.3851 52.1508 20.48 52.3952 20.48C52.6397 20.48 52.8843 20.3852 53.0709 20.1956L54.9766 18.2587C55.3498 17.8795 55.3498 17.2646 54.9766 16.8854C54.6033 16.5063 53.9985 16.5063 53.6252 16.8855ZM64.9237 18.2588C64.5506 17.8796 64.5506 17.2648 64.9237 16.8855C65.297 16.5063 65.9018 16.5063 66.2752 16.8856L68.181 18.8226C68.5541 19.2018 68.5541 19.8166 68.181 20.1958C67.9943 20.3854 67.7497 20.4802 67.5053 20.4802C67.2608 20.4802 67.0163 20.3853 66.8296 20.1958L64.9237 18.2588ZM53.6255 6.77541C53.8121 6.96491 54.0566 7.05983 54.3012 7.05983C54.5456 7.05983 54.7902 6.96502 54.9768 6.77553C55.35 6.3963 55.35 5.78148 54.9769 5.40225L53.0712 3.46524C52.698 3.08613 52.0931 3.08601 51.7201 3.46524C51.3469 3.84447 51.3469 4.45929 51.72 4.83852L53.6255 6.77541ZM66.3525 50.7814L62.8463 49.3522V48.9301C63.7948 48.3535 64.5259 47.4453 64.8847 46.3641C66.1874 46.2362 67.209 45.1181 67.209 43.7613C67.209 42.9576 66.85 42.2379 66.2868 41.7576V40.1916C66.2868 37.04 63.9357 34.437 60.9227 34.0963V28.4366C60.9227 27.9002 60.4951 27.4655 59.9673 27.4655C59.4395 27.4655 59.0119 27.9002 59.0119 28.4366V34.1151C56.0688 34.5215 53.7928 37.0907 53.7928 40.1918V41.7489C53.224 42.2292 52.8611 42.953 52.8611 43.7613C52.8611 45.1281 53.8983 46.2513 55.2145 46.3656C55.5736 47.446 56.3044 48.3537 57.2522 48.93V49.3465L53.6515 50.7798C53.3002 50.9093 50.4236 52.084 50.4236 55.8043V59.0282C50.4236 59.5646 50.8512 60 51.379 60H53.6412C54.169 60 54.5966 59.5654 54.5966 59.0289C54.5966 58.4925 54.169 58.0579 53.6412 58.0579H52.3348V55.8045C52.3348 53.3499 54.2194 52.6362 54.2912 52.61C54.306 52.605 54.3206 52.5995 54.3353 52.5937L57.6316 51.2815L59.3733 53.0054C59.5518 53.1822 59.7911 53.2808 60.0398 53.2808L60.055 53.2807C60.3093 53.2766 60.5513 53.1697 60.7279 52.9835L62.3704 51.2508L65.6577 52.5907C65.6747 52.5977 65.6834 52.6011 65.7006 52.607C65.7809 52.6362 67.6655 53.3496 67.6655 55.8044V58.0578H62.7364H57.2637H56.4711C55.9433 58.0578 55.5157 58.4924 55.5157 59.0288C55.5157 59.5653 55.9433 59.9999 56.4711 59.9999H57.2637H62.7364H68.6209C69.1486 59.9999 69.5763 59.5588 69.5763 59.0225V55.8044C69.5762 52.0988 66.7222 50.9186 66.3525 50.7814ZM65.1301 43.3174C65.2905 43.4363 65.391 43.5907 65.391 43.7613C65.391 43.932 65.2905 44.0864 65.1301 44.2051V43.3174ZM55.0326 44.2395L55.0328 44.2397H55.0326V44.2395ZM55.0326 43.3273V44.2395C54.872 44.1174 54.7719 43.9482 54.7719 43.7616C54.7719 43.5999 54.8496 43.4534 54.9738 43.3372C54.9935 43.3345 55.0129 43.3309 55.0326 43.3273ZM55.9271 40.6559H55.924C55.8912 40.6559 55.8585 40.6576 55.8265 40.6609C55.8203 40.6616 55.8142 40.6626 55.8082 40.6636L55.7967 40.6654L55.7801 40.6676C55.7692 40.6691 55.7583 40.6707 55.7475 40.6726C55.7422 40.6735 55.7371 40.6745 55.7319 40.6756C55.7289 40.6762 55.7258 40.6769 55.7228 40.6777L55.714 40.6801L55.7037 40.6829V40.1918C55.7038 37.8803 57.5539 35.9996 59.828 35.9996H60.2514C62.5256 35.9996 64.3759 37.8801 64.3759 40.1918V40.6771C63.1961 40.3949 62.803 38.7789 62.7989 38.7621L62.7989 38.762C62.7161 38.3898 62.4263 38.1015 62.0585 38.0252C61.6908 37.9485 61.3129 38.0983 61.0929 38.4074C59.5129 40.6277 55.9781 40.6558 55.9271 40.6559ZM60.0182 50.9329L60.9354 49.9652H60.9355V49.5765C60.7768 49.5931 60.6161 49.6017 60.4533 49.6017H59.6459C59.483 49.6017 59.3218 49.5931 59.1632 49.5764V50.0865L60.0182 50.9329ZM60.4532 47.6598H59.6457C58.1204 47.6598 56.8795 46.3986 56.8795 44.8484V42.535H56.8797C58.0357 42.4012 60.0088 41.9861 61.5599 40.7036C61.9129 41.2974 62.4445 41.9257 63.2191 42.3079V44.8485C63.2191 46.3986 61.9784 47.6598 60.4532 47.6598ZM83.27 49.3522L86.7763 50.7814C87.1464 50.9188 90 52.099 90 55.8042V59.0223C90 59.5586 89.5724 59.9996 89.0446 59.9996H83.1601H77.6873H76.8947C76.3669 59.9996 75.9393 59.565 75.9393 59.0286C75.9393 58.4921 76.3669 58.0575 76.8947 58.0575H77.6873H83.1601H88.0891V55.8042C88.0891 53.3494 86.2044 52.636 86.1241 52.6068C86.1069 52.6008 86.0982 52.5975 86.0812 52.5905L82.7939 51.2505L81.1512 52.9833C80.9747 53.1694 80.7327 53.2764 80.4784 53.2805L80.4633 53.2806C80.2145 53.2806 79.9752 53.1818 79.7966 53.0052L78.0551 51.2813L74.7587 52.5935C74.7441 52.5993 74.7294 52.6048 74.7146 52.6098C74.6428 52.636 72.7582 53.3497 72.7582 55.8043V58.0576H74.065C74.5928 58.0576 75.0204 58.4922 75.0204 59.0287C75.0204 59.5651 74.5928 59.9998 74.065 59.9998H71.8027C71.2748 59.9998 70.8472 59.5643 70.8472 59.028V55.8043C70.8472 52.084 73.7238 50.9093 74.0752 50.7798L77.676 49.3465V48.93C76.7279 48.3537 75.9971 47.446 75.6381 46.3656C74.322 46.2514 73.2847 45.1281 73.2847 43.7613C73.2847 42.953 73.6477 42.2292 74.2165 41.7489V40.1918C74.2165 37.0794 76.5095 34.5028 79.4682 34.1109V17.8293H70.6049C70.0771 17.8293 69.6495 17.3946 69.6495 16.8582C69.6495 16.3219 70.0771 15.8872 70.6049 15.8872H80.4237C80.9515 15.8872 81.3791 16.3219 81.3791 16.8582V34.1006C84.3764 34.4563 86.7104 37.0514 86.7104 40.1916V41.7576C87.2736 42.2379 87.6327 42.9574 87.6327 43.7613C87.6327 45.1181 86.6109 46.2362 85.3084 46.3641C84.9495 47.4453 84.2184 48.3534 83.27 48.9301V49.3522ZM85.8147 43.7613C85.8147 43.5907 85.7141 43.4363 85.5538 43.3174V44.2051C85.7141 44.0864 85.8147 43.932 85.8147 43.7613ZM75.4567 44.2395C75.2958 44.1173 75.1958 43.9482 75.1958 43.7616C75.1958 43.5999 75.2736 43.4535 75.3979 43.3372C75.4171 43.3345 75.4359 43.3311 75.4549 43.3276L75.4567 43.3273V44.2395ZM76.3478 40.6559H76.3509C76.4019 40.6558 79.9366 40.6277 81.5167 38.4074C81.7369 38.0983 82.1146 37.9485 82.4823 38.0252C82.8502 38.1017 83.1398 38.3899 83.2227 38.762C83.2254 38.7736 83.618 40.3945 84.7996 40.6771V40.1918C84.7996 37.8801 82.9495 35.9996 80.6753 35.9996H80.2519C77.9776 35.9996 76.1276 37.8803 76.1275 40.1918V40.6829L76.1378 40.6801C76.1437 40.6785 76.1496 40.6768 76.1557 40.6756C76.1648 40.6737 76.174 40.6721 76.1833 40.6706C76.1952 40.6688 76.2072 40.6672 76.2191 40.6656L76.2192 40.6656L76.2205 40.6654L76.232 40.6636C76.238 40.6626 76.2441 40.6616 76.2503 40.6609C76.2823 40.6576 76.315 40.6559 76.3478 40.6559ZM81.3592 49.9652L80.4418 50.9329L79.587 50.0865V49.5764C79.7455 49.5931 79.9065 49.6017 80.0695 49.6017H80.877C81.0397 49.6017 81.2006 49.5931 81.3593 49.5765V49.9652H81.3592ZM80.0693 47.6596H80.8767C82.402 47.6596 83.6428 46.3984 83.6427 44.8483V42.3077C82.868 41.9255 82.3364 41.2972 81.9836 40.7033C80.4335 41.985 78.4595 42.4 77.3032 42.5341H77.3031V44.8483C77.3031 46.3984 78.544 47.6596 80.0693 47.6596ZM49.3951 15.8873H39.5762C39.0484 15.8873 38.6208 16.322 38.6208 16.8584V34.111C35.662 34.5029 33.3691 37.0795 33.3691 40.1919V41.7491C32.8004 42.2293 32.4375 42.9531 32.4375 43.7615C32.4375 45.1282 33.4747 46.2515 34.7909 46.3657C35.1499 47.4461 35.8807 48.3538 36.8288 48.9301V49.3466L33.2279 50.78C32.8766 50.9094 30 52.0842 30 55.8043V59.0281C30 59.5644 30.4276 59.9999 30.9554 59.9999H33.2177C33.7455 59.9999 34.1732 59.5653 34.1732 59.0288C34.1732 58.4924 33.7455 58.0578 33.2177 58.0578H31.9109V55.8044C31.9109 53.3498 33.7955 52.6361 33.8673 52.6099C33.8821 52.6049 33.8967 52.5994 33.9114 52.5936L37.2077 51.2814L38.9493 53.0053C39.1279 53.1819 39.3671 53.2807 39.6159 53.2807L39.6311 53.2806C39.8854 53.2765 40.1273 53.1696 40.3038 52.9834L41.9466 51.2507L45.2338 52.5906C45.2423 52.5941 45.2488 52.5967 45.2553 52.5992C45.2617 52.6016 45.2681 52.604 45.2767 52.6069C45.357 52.6361 47.2417 53.3495 47.2417 55.8043V58.0576H42.3127H36.8398H36.0471C35.5193 58.0576 35.0917 58.4922 35.0917 59.0287C35.0917 59.5651 35.5193 59.9998 36.0471 59.9998H36.8398H42.3125H48.197C48.7248 59.9998 49.1524 59.5587 49.1524 59.0224V55.8043C49.1524 52.099 46.2988 50.9187 45.9287 50.7814L42.4225 49.3522V48.9301C43.3709 48.3534 44.102 47.4453 44.4608 46.3641C45.7634 46.2362 46.7851 45.1181 46.7851 43.7613C46.7851 42.9574 46.4261 42.2379 45.8629 41.7576V40.1916C45.8629 37.0514 43.5287 34.4563 40.5315 34.1006V17.8293H49.395C49.9227 17.8293 50.3504 17.3946 50.3504 16.8582C50.3505 16.3219 49.9228 15.8873 49.3951 15.8873ZM34.6092 44.2395C34.4483 44.1173 34.3484 43.9482 34.3484 43.7616C34.3484 43.5999 34.4261 43.4535 34.5505 43.3372C34.5695 43.3346 34.5883 43.3311 34.6072 43.3277L34.6073 43.3277L34.6092 43.3273V44.2395ZM44.9671 43.7613C44.9671 43.5907 44.8667 43.4363 44.7062 43.3174V44.2051C44.8667 44.0864 44.9673 43.9321 44.9671 43.7613ZM40.5116 49.9652L39.5943 50.9329L38.7394 50.0865V49.5764C38.898 49.5931 39.0589 49.6017 39.222 49.6017H40.0294C40.1921 49.6017 40.353 49.5931 40.5117 49.5765V49.9652H40.5116ZM40.0294 47.6596C41.5546 47.6596 42.7954 46.3984 42.7952 44.8483V42.3077C42.0205 41.9255 41.4891 41.2972 41.1361 40.7033C39.5861 41.985 37.612 42.4 36.4557 42.5341V44.8483C36.4557 46.3984 37.6966 47.6596 39.222 47.6596H40.0294ZM43.952 40.1918V40.6771C42.7722 40.3949 42.3792 38.7786 42.3751 38.7621L42.3751 38.762C42.2923 38.3899 42.0026 38.1017 41.6347 38.0252C41.2669 37.9485 40.8891 38.0983 40.6691 38.4074C39.0891 40.6277 35.5543 40.6558 35.5034 40.6559H35.5002C35.4674 40.6559 35.4347 40.6576 35.4027 40.6609C35.3965 40.6616 35.3905 40.6626 35.3844 40.6636L35.3729 40.6654C35.3511 40.6683 35.3293 40.6712 35.3081 40.6756C35.3022 40.6767 35.2964 40.6784 35.2906 40.68L35.2799 40.6829V40.1918C35.2799 37.8803 37.1299 35.9996 39.4042 35.9996H39.8276C42.102 35.9996 43.952 37.8803 43.952 40.1918Z" fill="url(#paint0_linear_0_2699)"/>
<defs>
<linearGradient id="paint0_linear_0_2699" x1="30.0649" y1="0" x2="30.0649" y2="59.8701" gradientUnits="userSpaceOnUse">
<stop stop-color="#09A8D6"/>
<stop offset="1" stop-color="#13328F"/>
</linearGradient>
</defs>
</svg>
