<svg width="120" height="61" viewBox="0 0 120 61" fill="none" xmlns="http://www.w3.org/2000/svg">
<path fill-rule="evenodd" clip-rule="evenodd" d="M30 10.9995C31.6778 11.0094 33.3534 10.8764 35.0085 10.6018H35.2627V10.551C39.7288 9.74723 42.6186 7.95347 45.4322 6.20201L45.5127 6.15241C48.8724 4.08087 52.0378 2.12913 57.839 1.74299H58.4068H59.9915C67.2104 1.69253 70.7537 3.874 74.5078 6.18527L74.5763 6.2274L74.6823 6.29265C78.4291 8.59969 82.3266 10.9995 90 10.9995C97.7458 10.9995 101.695 8.58805 105.449 6.2274C107.091 5.13979 108.82 4.18894 110.619 3.38445C110.611 3.4179 110.611 3.45254 110.619 3.48599L110.915 3.35061C110.915 3.35061 110.915 3.29984 110.856 3.27446C111.441 3.03755 112.059 2.82602 112.703 2.63141C112.703 2.63141 112.703 2.68218 112.746 2.6991H112.864C112.861 2.67385 112.861 2.6482 112.864 2.62295C115.186 1.97192 117.589 1.65846 120 1.69223V0C112.254 0 108.339 2.43681 104.551 4.79746C100.763 7.15812 97.2542 9.30725 90 9.30725C82.7458 9.30725 79.1949 7.12428 75.4237 4.79746L75.2203 4.67055C75.2261 4.62277 75.2261 4.57448 75.2203 4.52671L74.0593 3.82443V3.96827L73.5424 3.66367C73.579 3.63621 73.6058 3.59762 73.6186 3.55368L73.4237 3.38445C73.3779 3.40267 73.3372 3.4317 73.3051 3.46907C72.6864 3.13908 72.0339 2.79218 71.3729 2.45373L71.4237 2.3522L70.9492 2.13221C70.9121 2.16181 70.8685 2.18212 70.822 2.19143C69.995 1.80906 69.146 1.47568 68.2797 1.19302V1.10841L67.6271 0.913803L67.5763 0.981492C67.1186 0.846114 66.6441 0.727658 66.1441 0.617663V0.566896L65.839 0.507668C65.8353 0.524392 65.8353 0.541712 65.839 0.558435C64.7426 0.333243 63.633 0.17781 62.5169 0.0930725H62.0254C61.3729 0 60.7034 0 60 0C52.2542 0 48.3051 2.43681 44.5508 4.79746C40.7966 7.15812 37.2881 9.30725 30.1186 9.30725H29.7373C27.5175 9.31432 25.3065 9.02984 23.161 8.46114V8.38499L22.6441 8.23269C22.6469 8.25233 22.6469 8.27227 22.6441 8.29191H22.5932L21.8898 8.06346L21.7966 7.94501L21.1102 7.67425V7.78425L20.7712 7.65733C20.7341 7.61372 20.6833 7.5839 20.6271 7.57272V7.61502C19.8729 7.30196 19.1695 6.95506 18.4831 6.59123C18.4556 6.51459 18.4155 6.44309 18.3644 6.3797L18.1356 6.25278C18.0747 6.23492 18.01 6.23492 17.9492 6.25278C17.9531 6.26947 17.9531 6.28686 17.9492 6.30355L17.2966 5.9228L17.4068 5.82972L16.4915 5.27975C16.4874 5.33608 16.4874 5.39264 16.4915 5.44897L15.4237 4.79746C12 2.64834 8.47458 0.44844 2 0.0676891H1.38983C0.957627 0 0.483051 0 0 0V1.69223C7.25424 1.69223 10.7966 3.89212 14.5508 6.2274C18.3051 8.56267 22.2542 10.9995 30 10.9995ZM17.2458 5.9228C17.0763 5.82974 16.9153 5.72821 16.7543 5.62669L16.7542 5.62666C16.9492 5.55051 17.1271 5.60973 17.2458 5.9228ZM29.9831 22.996C33.004 23.0488 36.0109 22.5747 38.8679 21.5952V21.6711L39.3252 21.5108V21.4011C41.4502 20.5333 43.4843 19.4592 45.3981 18.1942L45.4176 18.1821C49.1541 15.8658 52.6947 13.6709 59.9407 13.6709C67.1448 13.6709 70.7029 15.8571 74.449 18.1588L74.5342 18.2111L74.6623 18.2898C78.4008 20.5872 82.3207 22.996 89.9746 22.996C90.991 22.996 91.9396 22.996 92.8289 22.8694H93.1846C95.6685 22.6485 98.0999 22.0272 100.384 21.0297C100.409 21.0619 100.441 21.0879 100.477 21.1057L100.621 21.0466C100.627 21.0131 100.627 20.9788 100.621 20.9454C101.18 20.6922 101.705 20.4306 102.222 20.1605C102.213 20.2136 102.213 20.2678 102.222 20.3209L102.654 20.0846C102.649 20.0425 102.649 20 102.654 19.958C103.428 19.5331 104.167 19.088 104.893 18.6501L104.893 18.6499C105.105 18.5225 105.315 18.3957 105.525 18.2702C108.778 16.2533 111.886 14.3292 117.383 13.8566L118.23 13.7891C118.507 13.7891 118.789 13.7769 119.077 13.7646L119.077 13.7646C119.377 13.7516 119.684 13.7384 120 13.7384V12.0506C112.259 12.0506 108.346 14.4811 104.56 16.8356C100.774 19.19 97.2671 21.3589 90.0169 21.3589C87.5609 21.3945 85.1128 21.0733 82.7499 20.4053L82.8007 20.3377L82.301 20.1774L82.157 20.2027C79.7621 19.3541 77.4853 18.2057 75.3811 16.7849C73.994 15.8849 72.5544 15.0677 71.07 14.3376C71.0743 14.2955 71.0743 14.2531 71.07 14.211L70.6635 14.0338L70.6126 14.1266C70.0536 13.865 69.4608 13.6287 68.8425 13.4093C68.8711 13.3938 68.8946 13.3703 68.9102 13.3418L68.6392 13.249C68.6538 13.2881 68.6738 13.325 68.6985 13.3587C66.5123 12.6107 64.2313 12.1732 61.9226 12.0591H61.262H59.9831C52.2417 12.0591 48.3286 14.4895 44.5426 16.844C40.7566 19.1985 37.2671 21.3082 29.9831 21.3082C28.2535 21.3185 26.5267 21.1687 24.825 20.861V20.8103L24.1728 20.6669C24.1713 20.6922 24.1713 20.7175 24.1728 20.7428L23.8171 20.6247L22.9701 20.3884V20.4643L22.5127 20.3293C22.5509 20.3229 22.5863 20.3052 22.6143 20.2787L22.3602 20.1943V20.2871C22.0384 20.1858 21.725 20.0761 21.4116 19.958C21.4165 19.9272 21.4165 19.8959 21.4116 19.8652L20.9797 19.6964V19.7892C19.6371 19.2389 18.3401 18.5843 17.1005 17.8314C17.1089 17.7811 17.1089 17.7297 17.1005 17.6795L16.7956 17.5022C16.79 17.5612 16.79 17.6205 16.7956 17.6795L15.4066 16.8356L15.2372 16.7343C15.2509 16.6846 15.2509 16.6321 15.2372 16.5824C15.1532 16.5146 15.0331 16.5146 14.9492 16.5824C14.4918 16.2955 14.0344 16.017 13.5686 15.7385V15.5781L13.2552 15.4009V15.5275C12.088 14.8487 10.8738 14.2537 9.62168 13.7469C9.69863 13.7211 9.78189 13.7211 9.85884 13.7469L9.20666 13.5021V13.5865C7.52643 12.9617 5.77801 12.5368 3.99774 12.3207H3.72671C2.49203 12.1396 1.24755 12.0325 0 12V13.6878C7.22953 13.6878 10.7704 15.8779 14.5106 18.1913L14.5426 18.2111L14.5961 18.2442C18.3323 20.5552 22.2785 22.996 29.9831 22.996ZM104.425 41.7793C108.209 39.4276 112.12 37 119.856 37L119.848 37.4046L120 37.4636V38.0199C119.945 38.0349 119.893 38.0607 119.848 38.0958V38.7111C117.298 38.6667 114.756 39.0164 112.314 39.7479V39.7563C109.847 40.5999 107.505 41.7678 105.348 43.2291C105.137 43.3551 104.926 43.4815 104.716 43.6077L104.716 43.6078C103.814 44.1485 102.916 44.6874 101.962 45.1931C102.021 45.1793 102.081 45.2028 102.115 45.2521L101.903 45.3617V45.2184C100.146 46.1615 98.2697 46.8674 96.325 47.3172C96.3298 47.3395 96.3298 47.3624 96.325 47.3847H96.215C96.2126 47.3679 96.2126 47.3509 96.215 47.3341C94.1961 47.7702 92.1357 47.9879 90.0698 47.9831H89.9175C82.4009 47.9831 78.4879 45.62 74.8092 43.3984L74.4868 43.2038L74.2857 43.0825C70.585 40.8501 67.0531 38.7195 59.9281 38.7195C52.6772 38.7195 49.0798 40.9513 45.3994 43.2346L45.3947 43.2375C41.7126 45.5218 37.8952 47.882 30.565 48H29.964C22.2366 48 18.2924 45.5529 14.5466 43.2289L14.5334 43.2207C10.7837 40.8943 7.24554 38.7027 0 38.7027V37.0169H0.846441C3.41158 37.0554 5.9565 37.4759 8.3967 38.2644C8.40128 38.2365 8.40128 38.208 8.3967 38.1801L9.02307 38.3908V38.492C11.0809 39.2795 13.0475 40.2856 14.8889 41.4927C14.8931 41.4366 14.8931 41.3803 14.8889 41.3241L15.4222 41.6529C15.3916 41.6871 15.3685 41.7273 15.3544 41.7709H15.4306C17.9234 43.4871 20.6872 44.7754 23.6072 45.5823C23.6156 45.585 23.624 45.5873 23.6326 45.5893L23.6072 45.5823C23.5656 45.5686 23.5278 45.545 23.4972 45.5134L23.8866 45.6061C23.8251 45.6182 23.7618 45.6182 23.7004 45.6061C25.7524 46.0883 27.8557 46.3204 29.964 46.2973C37.2434 46.2973 40.7477 44.1142 44.4974 41.7709C48.2472 39.4276 52.1916 37 59.9196 37.0421C62.4374 37.0086 64.9475 37.3264 67.3767 37.9862V37.9103L67.6899 37.9946L67.6391 38.0621C69.7981 38.7216 71.8612 39.6596 73.7758 40.8521V40.7088L73.9028 40.7847C73.9074 40.8323 73.9074 40.8803 73.9028 40.928L75.3756 41.7962L75.482 41.8614C79.0983 44.0792 82.4837 46.1554 89.1895 46.2973H90.036C97.1799 46.2636 100.642 44.131 104.425 41.7793ZM112.314 39.8153C112.319 39.7959 112.319 39.7757 112.314 39.7563V39.8153ZM87.2481 59.1519C88.1216 59.2275 89.0544 59.2779 90.0636 59.2779C97.323 59.2779 100.749 57.2534 104.54 54.9097C108.331 52.566 112.249 50.1467 120 50.1467V51.8268H118.66H118.406C117.063 51.8798 115.727 52.0427 114.411 52.314V52.3644H114.276V52.314C110.561 53.1121 108.068 54.6493 105.473 56.2538C102.03 58.4379 98.4 60.6136 91.853 60.958C91.3781 61 90.8947 61 90.3859 61H90.0297C82.3153 61 78.3641 58.5703 74.6232 56.2699L74.5696 56.237L74.5376 56.2173C70.7925 53.9144 67.2472 51.7344 60.0085 51.7344C57.2467 51.6797 54.4959 52.0945 51.8756 52.9609V53.0281L51.511 53.1541C51.4798 53.1432 51.453 53.1225 51.4346 53.0953C49.8104 53.7167 48.2512 54.4932 46.7788 55.4138C46.8212 55.4558 46.8212 55.4978 46.8212 55.5482L46.3548 55.8254C46.3779 55.7727 46.4203 55.7307 46.4735 55.7078L46.4226 55.6406L45.4643 56.2286C45.4685 56.2789 45.4685 56.3295 45.4643 56.3798L45.0742 56.6234C45.0418 56.5874 45.0185 56.5442 45.0064 56.4974L44.8113 56.6234H44.9216V56.6822L44.5399 56.909C44.5124 56.8728 44.4896 56.8333 44.4721 56.7914C43.9463 57.119 43.4035 57.4298 42.8438 57.7407V57.9087L42.6996 57.9927C42.7084 57.9157 42.7445 57.8442 42.8014 57.7911C38.9174 59.9932 34.4945 61.0892 30.0212 60.958C22.2791 60.958 18.3273 58.5192 14.5744 56.2032L14.5611 56.195C10.8042 53.8765 7.25936 51.6924 0 51.6924V50.0123C4.12124 49.8913 8.20616 50.8075 11.8728 52.6752C11.864 52.6365 11.864 52.5964 11.8728 52.5576L12.229 52.692C12.2331 52.7339 12.2331 52.7761 12.229 52.818C12.3686 52.8958 12.5122 52.9736 12.6571 53.0521L12.6572 53.0522L12.6572 53.0522L12.6572 53.0522L12.6573 53.0522L12.6574 53.0523L12.6575 53.0523C12.9349 53.2026 13.2168 53.3553 13.4841 53.5153V53.3641L13.8827 53.5993V53.7001L13.8403 53.7421L15.5364 54.7753C18.1908 56.4134 20.7519 57.9843 24.5936 58.7655C24.5912 58.7488 24.5912 58.7318 24.5936 58.7151L24.865 58.7739V58.8327C26.5661 59.139 28.2923 59.288 30.0212 59.2779C37.3145 59.2779 40.8254 57.119 44.5823 54.7753C48.3392 52.4316 52.2912 50.0123 60.0424 50.0123C64.4236 49.8733 68.761 50.9126 72.5936 53.0197L72.7124 52.944V53.0953C73.6707 53.6665 74.5781 54.2209 75.477 54.7753L75.4879 54.782C78.7065 56.7536 81.7587 58.6233 87.0954 59.1519H87.2481ZM24.37 58.4588C24.48 58.5488 24.57 58.5588 24.63 58.5188L24.37 58.4588ZM20.6468 19.5645L20.3568 19.4245C20.3521 19.4442 20.3521 19.4648 20.3568 19.4845C20.431 19.5631 20.5427 19.594 20.6468 19.5645ZM16.41 30.4188L16.59 30.5288C16.586 30.532 16.5819 30.5352 16.5778 30.5382C17.921 31.3511 19.3175 32.0739 20.7582 32.7017C20.77 32.6682 20.7871 32.6369 20.8089 32.6089L21.0457 32.7101V32.8198C21.5953 33.0391 22.1702 33.2331 22.779 33.4103L22.7368 33.3175C22.9989 33.4018 23.261 33.4778 23.5316 33.5452V33.6043C24.8024 33.9211 26.0979 34.13 27.4042 34.2285C27.4483 34.233 27.4927 34.2377 27.5375 34.2424C27.8269 34.2728 28.1281 34.3044 28.4357 34.3044H29.9324C37.2041 34.3044 40.6623 32.1534 44.4419 29.7998C48.2215 27.4463 52.128 25.0169 59.8563 25.0169C61.0967 25.0137 62.3362 25.0841 63.5682 25.2278H63.7035C68.9797 25.8857 72.159 27.8597 75.2537 29.783C77.3542 31.2031 79.6272 32.3512 82.018 33.1994V33.1403V33.0982L82.314 33.2163C82.3188 33.2413 82.3188 33.2671 82.314 33.2922L82.6437 33.385C82.6389 33.3627 82.6389 33.3397 82.6437 33.3175L82.8636 33.3765V33.4525C83.5804 33.6695 84.3087 33.847 85.0451 33.9839V33.9333C85.4256 34.0092 85.8484 34.0683 86.2711 34.1273H86.3219C87.0913 34.2285 87.9453 34.3129 88.8585 34.3129H89.9408C97.0772 34.2791 100.536 32.1449 104.315 29.7914C108.095 27.4379 112.001 25.0084 119.729 25.0084L120 25V26.6871H119.662C118.594 26.6865 117.527 26.7456 116.466 26.8643H116.322C113.514 27.1725 110.796 28.0326 108.323 29.3949C108.289 29.4579 108.258 29.5227 108.23 29.589L107.917 29.7155V29.5805C107.016 30.0793 106.162 30.6098 105.294 31.1489L105.211 31.2002C104.929 31.3694 104.65 31.5392 104.372 31.7084C103.418 32.2899 102.471 32.8661 101.423 33.4018C101.423 33.4069 101.43 33.4066 101.436 33.4063C101.452 33.4055 101.471 33.4046 101.423 33.4693C101.356 33.5621 101.22 33.5621 101.077 33.5621L100.409 33.8742V33.9923L99.9605 34.1779V34.0936C98.4575 34.7303 96.8897 35.2026 95.2847 35.5023V35.5529H95.0733C93.3397 35.8559 91.5824 36.0027 89.8224 35.9916C82.1815 35.9916 78.2682 33.5837 74.536 31.2873L74.4081 31.2086L74.3812 31.192C70.6201 28.8784 67.0853 26.704 59.8563 26.704C52.6225 26.704 49.0879 28.898 45.3577 31.2133L45.3382 31.2255C42.0321 33.2837 38.6246 35.4011 32.655 35.8988H32.469C31.6742 35.9663 30.8286 36 29.9324 36C22.2408 36 18.3013 33.5602 14.5715 31.2501L14.518 31.217L14.4861 31.1972C10.7521 28.8847 7.2173 26.6956 0 26.6956V25.0084H0.321308C3.45258 24.9824 6.56115 25.5403 9.48703 26.6534C9.43616 26.6128 9.3956 26.5607 9.36866 26.5015L9.53777 26.569V26.6618C10.3725 26.9903 11.1883 27.3649 11.9814 27.7837C11.9855 27.7388 11.9855 27.6937 11.9814 27.6488L12.1421 27.7331C12.1018 27.7732 12.0466 27.7946 11.9899 27.7922C13.2074 28.4333 14.3236 29.1166 15.4228 29.8083C15.7484 30.023 16.0776 30.2323 16.41 30.436V30.4188ZM77.44 5.42765L77.56 5.50765C77.53 5.54765 77.44 5.59765 77.44 5.55765V5.42765ZM98.375 35.55L98.625 35.47C98.5786 35.4433 98.5214 35.4433 98.475 35.47C98.4357 35.4883 98.4014 35.5157 98.375 35.55Z" fill="#ECEDED"/>
<path fill-rule="evenodd" clip-rule="evenodd" d="M84.4416 45.0037C84.0692 44.6333 83.466 44.6333 83.0938 45.0037L82.8584 45.2382L81.2822 43.6686C81.3743 41.0603 78.0649 37.7504 77.3348 37.0533L75.7159 35.441V30.0001V26.5916C76.0515 26.7926 76.4412 26.9191 76.8767 26.965C76.8851 26.966 76.8937 26.9667 76.9021 26.9672C76.9106 26.9679 76.9359 26.9696 76.9752 26.9696C77.386 26.9696 79.3362 26.7896 79.8638 23.4294C80.0488 22.2506 80.4442 21.6812 80.9021 21.0221C81.6475 19.9489 82.4171 18.8406 82.0798 15.7856L82.9834 14.886L83.094 14.9961C83.2801 15.1814 83.524 15.274 83.7678 15.274C84.0117 15.274 84.2556 15.1814 84.4418 14.9961L89.721 9.73922C89.8996 9.56121 90 9.31992 90 9.06809C90 8.81637 89.8996 8.57508 89.721 8.39695L81.5672 0.277852C81.1949 -0.0925781 80.5916 -0.0925781 80.2194 0.277852L74.9402 5.535C74.7616 5.71301 74.6612 5.9543 74.6612 6.20613C74.6612 6.45785 74.7616 6.69914 74.9403 6.87727L75.1756 7.11152L73.5994 8.68102C70.9805 8.59195 67.6559 11.8852 66.9561 12.612L65.2108 14.3501H60.0001H56.6221C56.8713 13.9889 57.0267 13.5573 57.0788 13.068C57.0798 13.0597 57.0806 13.0512 57.0813 13.0427C57.0891 12.9461 57.2264 10.6691 53.5286 10.0935C52.345 9.90926 51.7732 9.51551 51.1112 9.05941C50.0334 8.31715 48.9206 7.55121 45.8526 7.8866L44.9493 6.98707L45.0598 6.87703C45.432 6.50625 45.432 5.90555 45.0598 5.53488L39.78 0.277852C39.6013 0.0999609 39.359 0 39.1062 0C38.8534 0 38.6111 0.099961 38.4322 0.277969L30.2792 8.3973C29.9069 8.76797 29.9069 9.36879 30.2792 9.73934L35.5583 14.9963C35.7445 15.1815 35.9885 15.2741 36.2323 15.2741C36.4761 15.2741 36.7201 15.1815 36.9063 14.9963L37.1416 14.7619L38.7178 16.3314C38.6258 18.9396 41.935 22.2493 42.6651 22.9466L44.2844 24.5591V29.9998V33.4085C43.9488 33.2074 43.5588 33.0806 43.1232 33.0349C43.1149 33.0339 43.1062 33.0332 43.0978 33.0325C42.9992 33.0234 40.7142 32.8884 40.136 36.5702C39.951 37.7491 39.5557 38.3184 39.098 38.9776C38.3526 40.0508 37.5829 41.1592 37.9202 44.2141L37.017 45.1136L36.9065 45.0035C36.5343 44.6329 35.9309 44.6327 35.5587 45.0034L30.2793 50.2607C30.1005 50.4387 30.0001 50.68 30.0001 50.9318C30.0001 51.1835 30.1005 51.4248 30.2792 51.6029L38.4324 59.7221C38.6111 59.9 38.8534 60 39.1063 60C39.3591 60 39.6014 59.9 39.7803 59.7221L45.0595 54.465C45.4317 54.0942 45.4317 53.4935 45.0595 53.1229L44.8241 52.8885L46.4004 51.3189C46.436 51.3202 46.4721 51.3207 46.5082 51.3207C49.11 51.3207 52.353 48.1052 53.0435 47.3882L54.6741 45.7645C54.7102 45.7286 54.7419 45.6898 54.7711 45.6499H60H63.3782C63.1287 46.011 62.9733 46.4427 62.9213 46.932C62.9204 46.9403 62.9196 46.9488 62.9189 46.957C62.9112 47.0538 62.7733 49.3308 66.4714 49.9065C67.6552 50.0909 68.2269 50.4845 68.8888 50.9406C69.9665 51.6829 71.0797 52.449 74.1475 52.1133L75.0508 53.0128L74.9403 53.1229C74.5681 53.4936 74.5681 54.0943 74.9403 54.465L80.2195 59.7221C80.3983 59.9 80.6406 60 80.8935 60C81.1463 60 81.3887 59.9 81.5674 59.722L89.7206 51.6027C90.0926 51.2323 90.0926 50.6314 89.7206 50.2607L84.4416 45.0037ZM80.8932 2.29113L87.699 9.0682L83.7676 12.983L77.1982 6.44168C77.1978 6.44133 77.1976 6.44098 77.1971 6.44051C77.1968 6.44016 77.1964 6.43992 77.1959 6.43945L76.9616 6.20613L80.8932 2.29113ZM60.9529 16.248H69.8266C70.353 16.248 70.7796 15.8232 70.7796 15.2991C70.7796 14.7749 70.353 14.3501 69.8266 14.3501H67.9058L68.311 13.9467C68.3158 13.9419 68.3207 13.937 68.3254 13.9321C69.7903 12.4086 72.5138 10.2959 73.7054 10.6008C74.0317 10.684 74.3778 10.5898 74.6159 10.3527L76.5233 8.45356L81.6351 13.5438L80.4024 14.7714C80.1915 14.9815 80.0915 15.2779 80.1322 15.5721C80.5042 18.2577 79.9878 19.0014 79.3341 19.9426C78.8435 20.6491 78.2327 21.5284 77.9804 23.1364C77.7494 24.6076 77.2264 25.0213 77.0118 25.0692C76.7057 25.0228 76.5841 24.8958 76.5061 24.7755C76.0855 24.1284 76.3226 22.5427 76.6254 21.6227C76.7903 21.1255 76.5193 20.5891 76.0199 20.4244C75.919 20.3911 75.8164 20.3764 75.7156 20.3769V15.2993C75.7156 14.7751 75.289 14.3503 74.7626 14.3503H72.876C72.3496 14.3503 71.923 14.7751 71.923 15.2993C71.923 15.8235 72.3496 16.2483 72.876 16.2483H73.8095V22.2782C73.8095 22.2785 73.8095 22.2791 73.8095 22.2795V29.0511H68.9699C68.4435 29.0511 68.0169 29.4759 68.0169 30.0001V31.6605C68.0169 31.9956 68.1943 32.3057 68.4835 32.4765C69.1485 32.8698 69.5458 33.5632 69.5458 34.3315C69.5458 35.52 68.5747 36.4869 67.3812 36.4869C66.1876 36.4869 65.2167 35.52 65.2167 34.3315C65.2167 33.5632 65.6138 32.8697 66.279 32.4765C66.568 32.3055 66.7455 31.9954 66.7455 31.6605V30.0001C66.7455 29.4759 66.3189 29.0511 65.7925 29.0511H60.953V25.1808H61.1713C61.9378 26.1314 63.1109 26.7032 64.3499 26.7032C66.5944 26.7032 68.4202 24.8848 68.4202 22.6496C68.4202 20.4145 66.5943 18.5964 64.3499 18.5964C63.111 18.5964 61.9378 19.1682 61.1713 20.1188H60.953V16.248H60.9529ZM59.0469 16.248V21.0675C59.0469 21.5917 59.4735 22.0165 59.9999 22.0165H61.6672C62.0037 22.0165 62.3152 21.84 62.4866 21.5518C62.8816 20.8895 63.5779 20.494 64.3495 20.494C65.543 20.494 66.5139 21.4609 66.5139 22.6493C66.5139 23.8378 65.5429 24.8048 64.3495 24.8048C63.578 24.8048 62.8814 24.4093 62.4866 23.747C62.3148 23.4589 62.0035 23.2823 61.6672 23.2823H59.9999C59.4735 23.2823 59.0469 23.7071 59.0469 24.2313V29.0507H55.1601V28.8333C56.1145 28.0702 56.6888 26.9019 56.6888 25.6682C56.6888 23.4332 54.8628 21.6148 52.6183 21.6148C50.3738 21.6148 48.5479 23.4332 48.5479 25.6682C48.5479 26.9016 49.1224 28.0697 50.0766 28.8332V29.0507H46.1901V16.248H59.0469ZM36.4686 12.7475C36.4683 12.7479 36.4677 12.7482 36.4673 12.7487C36.467 12.7491 36.4666 12.7496 36.4661 12.75L36.2321 12.9831L32.3007 9.06832L39.1062 2.29102L43.0377 6.20602L42.9282 6.315C42.9279 6.31535 42.9273 6.3157 42.927 6.31617C42.9266 6.31664 42.9262 6.31711 42.9258 6.31746L36.4686 12.7475ZM44.2838 15.2991V21.875L44.0055 21.5975C44.0006 21.5926 43.9957 21.5878 43.9907 21.5831C42.4609 20.1245 40.3397 17.4129 40.6453 16.2254C40.7289 15.9006 40.6343 15.5558 40.3961 15.3188L38.4891 13.42L43.6009 8.32957L44.8334 9.55688C45.0442 9.76688 45.3415 9.86637 45.6375 9.82594C48.335 9.45551 49.0812 9.96973 50.0264 10.6208C50.7359 11.1094 51.6189 11.7175 53.2337 11.9689C54.7111 12.1989 55.1265 12.7195 55.1746 12.9333C55.128 13.2382 55.0003 13.3593 54.8796 13.4371C54.6387 13.5923 54.2679 13.6571 53.85 13.6624C53.5097 13.5968 53.2017 13.5163 52.9709 13.4409C52.8928 13.4152 52.8122 13.4021 52.7313 13.4021C52.6019 13.4021 52.4791 13.4352 52.3707 13.4937C52.1322 13.4415 51.9074 13.3814 51.713 13.318C51.2141 13.1544 50.6753 13.4239 50.51 13.9211C50.4624 14.0641 50.4521 14.2103 50.4716 14.3501H45.2369C44.7104 14.3501 44.2838 14.7749 44.2838 15.2991ZM39.1063 57.7089L32.3008 50.9317L36.2324 47.0168L36.3419 47.1258C36.3422 47.1261 36.3426 47.1267 36.343 47.1271C36.3434 47.1274 36.344 47.1278 36.3443 47.1282L42.8024 53.5595C42.8026 53.5596 42.8026 53.5596 42.8026 53.5596C42.8026 53.5596 42.8027 53.5596 42.8027 53.5597L43.0379 53.7937L39.1063 57.7089ZM51.6887 46.0532C51.684 46.0579 51.679 46.0629 51.6744 46.0676C50.2073 47.5907 47.4825 49.7025 46.2942 49.3993C45.9677 49.316 45.6217 49.4102 45.3837 49.6474L43.4764 51.5466L38.3647 46.4562L39.597 45.229C39.8079 45.019 39.9078 44.7226 39.8672 44.4282C39.4954 41.7427 40.0119 40.999 40.6655 40.0577C41.1561 39.3512 41.7667 38.472 42.019 36.8638C42.25 35.3926 42.773 34.9789 42.9877 34.931C43.2939 34.9774 43.4154 35.1046 43.4936 35.2248C43.9142 35.8721 43.6768 37.4584 43.3741 38.378C43.2096 38.8752 43.4805 39.4113 43.9797 39.576C44.0807 39.6094 44.1833 39.624 44.2842 39.6234V44.7011C44.2842 45.2251 44.7108 45.65 45.2371 45.65H52.0937L51.6887 46.0532ZM59.047 43.7518H46.1902V37.7215C46.1902 37.7213 46.1902 37.7211 46.1902 37.7209V30.9489H51.0297C51.556 30.9489 51.9826 30.5241 51.9826 29.9999V28.3395C51.9826 28.0046 51.8054 27.6943 51.5163 27.5236C50.861 27.1361 50.4538 26.4252 50.4538 25.6685C50.4538 24.4799 51.4248 23.5131 52.6183 23.5131C53.812 23.5131 54.7829 24.48 54.7829 25.6685C54.7829 26.4368 54.3858 27.1303 53.7207 27.5235C53.4315 27.6945 53.2541 28.0045 53.2541 28.3395V29.9998C53.2541 30.5239 53.6807 30.9488 54.207 30.9488H59.0468V34.8192H58.8284C58.0619 33.8687 56.8888 33.2968 55.6502 33.2968C53.4055 33.2968 51.5795 35.1152 51.5795 37.3505C51.5795 39.5856 53.4055 41.4039 55.6502 41.4039C56.8888 41.4039 58.062 40.8319 58.8284 39.8814H59.0468V43.7518H59.047ZM60.9529 43.7518V38.9324C60.9529 38.4082 60.5263 37.9834 59.9999 37.9834H58.3325C57.9963 37.9834 57.6846 38.1599 57.5132 38.4479C57.118 39.1105 56.4216 39.506 55.6503 39.506C54.4568 39.506 53.4857 38.5391 53.4857 37.3506C53.4857 36.1621 54.4568 35.195 55.6503 35.195C56.4217 35.195 57.1181 35.5905 57.5132 36.253C57.6849 36.5409 57.9963 36.7175 58.3325 36.7175H59.9998C60.5262 36.7175 60.9528 36.2927 60.9528 35.7686V30.9491H64.8393V31.1667C63.8848 31.9298 63.3106 33.098 63.3106 34.3317C63.3106 36.5668 65.1367 38.3851 67.3811 38.3851C69.6257 38.3851 71.4518 36.5667 71.4518 34.3317C71.4518 33.0981 70.8775 31.9298 69.923 31.1666V30.9491H73.8097V43.7521H60.9529V43.7518ZM75.1663 50.443C74.9555 50.233 74.6581 50.1338 74.3622 50.1739C71.6643 50.5444 70.9185 50.03 69.9731 49.3792C69.2636 48.8905 68.3808 48.2824 66.766 48.0309C65.2884 47.801 64.8731 47.2802 64.8251 47.0666C64.8717 46.7617 64.9992 46.6406 65.12 46.5629C65.7702 46.1439 67.3624 46.3802 68.2858 46.6816C68.7857 46.8458 69.3239 46.5759 69.4894 46.0787C69.5369 45.9356 69.5472 45.7896 69.5277 45.6497H74.7626C75.289 45.6497 75.7156 45.2248 75.7156 44.7007V38.1248L75.9939 38.4021C75.9989 38.407 76.0037 38.4118 76.0088 38.4165C77.5386 39.8752 79.6598 42.5869 79.3541 43.7742C79.2703 44.0992 79.3652 44.4439 79.6033 44.681L81.5105 46.58L76.3988 51.6703L75.1663 50.443ZM80.8935 57.7089L76.9621 53.7939L77.0715 53.6849C77.0719 53.6845 77.0725 53.6842 77.0728 53.6837C77.0732 53.6832 77.0737 53.6828 77.074 53.6824L83.7678 47.0167L87.6992 50.9314L80.8935 57.7089Z" fill="url(#paint0_linear_0_2751)"/>
<defs>
<linearGradient id="paint0_linear_0_2751" x1="30.0649" y1="0" x2="30.0649" y2="59.8701" gradientUnits="userSpaceOnUse">
<stop stop-color="#09A8D6"/>
<stop offset="1" stop-color="#13328F"/>
</linearGradient>
</defs>
</svg>
