<svg width="120" height="61" viewBox="0 0 120 61" fill="none" xmlns="http://www.w3.org/2000/svg">
<path fill-rule="evenodd" clip-rule="evenodd" d="M30 10.9995C31.6778 11.0094 33.3534 10.8764 35.0085 10.6018H35.2627V10.551C39.7288 9.74723 42.6186 7.95347 45.4322 6.20201L45.5127 6.15241C48.8724 4.08087 52.0378 2.12913 57.839 1.74299H58.4068H59.9915C67.2104 1.69253 70.7537 3.874 74.5078 6.18527L74.5763 6.2274L74.6823 6.29265C78.4291 8.59969 82.3266 10.9995 90 10.9995C97.7458 10.9995 101.695 8.58805 105.449 6.2274C107.091 5.13979 108.82 4.18894 110.619 3.38445C110.611 3.4179 110.611 3.45254 110.619 3.48599L110.915 3.35061C110.915 3.35061 110.915 3.29984 110.856 3.27446C111.441 3.03755 112.059 2.82602 112.703 2.63141C112.703 2.63141 112.703 2.68218 112.746 2.6991H112.864C112.861 2.67385 112.861 2.6482 112.864 2.62295C115.186 1.97192 117.589 1.65846 120 1.69223V0C112.254 0 108.339 2.43681 104.551 4.79746C100.763 7.15812 97.2542 9.30725 90 9.30725C82.7458 9.30725 79.1949 7.12428 75.4237 4.79746L75.2203 4.67055C75.2261 4.62277 75.2261 4.57448 75.2203 4.52671L74.0593 3.82443V3.96827L73.5424 3.66367C73.579 3.63621 73.6058 3.59762 73.6186 3.55368L73.4237 3.38445C73.3779 3.40267 73.3372 3.4317 73.3051 3.46907C72.6864 3.13908 72.0339 2.79218 71.3729 2.45373L71.4237 2.3522L70.9492 2.13221C70.9121 2.16181 70.8685 2.18212 70.822 2.19143C69.995 1.80906 69.146 1.47568 68.2797 1.19302V1.10841L67.6271 0.913803L67.5763 0.981492C67.1186 0.846114 66.6441 0.727658 66.1441 0.617663V0.566896L65.839 0.507668C65.8353 0.524392 65.8353 0.541712 65.839 0.558435C64.7426 0.333243 63.633 0.17781 62.5169 0.0930725H62.0254C61.3729 0 60.7034 0 60 0C52.2542 0 48.3051 2.43681 44.5508 4.79746C40.7966 7.15812 37.2881 9.30725 30.1186 9.30725H29.7373C27.5175 9.31432 25.3065 9.02984 23.161 8.46114V8.38499L22.6441 8.23269C22.6469 8.25233 22.6469 8.27227 22.6441 8.29191H22.5932L21.8898 8.06346L21.7966 7.94501L21.1102 7.67425V7.78425L20.7712 7.65733C20.7341 7.61372 20.6833 7.5839 20.6271 7.57272V7.61502C19.8729 7.30196 19.1695 6.95506 18.4831 6.59123C18.4556 6.51459 18.4155 6.44309 18.3644 6.3797L18.1356 6.25278C18.0747 6.23492 18.01 6.23492 17.9492 6.25278C17.9531 6.26947 17.9531 6.28686 17.9492 6.30355L17.2966 5.9228L17.4068 5.82972L16.4915 5.27975C16.4874 5.33608 16.4874 5.39264 16.4915 5.44897L15.4237 4.79746C12 2.64834 8.47458 0.44844 2 0.0676891H1.38983C0.957627 0 0.483051 0 0 0V1.69223C7.25424 1.69223 10.7966 3.89212 14.5508 6.2274C18.3051 8.56267 22.2542 10.9995 30 10.9995ZM17.2458 5.9228C17.0763 5.82974 16.9153 5.72821 16.7543 5.62669L16.7542 5.62666C16.9492 5.55051 17.1271 5.60973 17.2458 5.9228ZM29.9831 22.996C33.004 23.0488 36.0109 22.5747 38.8679 21.5952V21.6711L39.3252 21.5108V21.4011C41.4502 20.5333 43.4843 19.4592 45.3981 18.1942L45.4176 18.1821C49.1541 15.8658 52.6947 13.6709 59.9407 13.6709C67.1448 13.6709 70.7029 15.8571 74.449 18.1588L74.5342 18.2111L74.6623 18.2898C78.4008 20.5872 82.3207 22.996 89.9746 22.996C90.991 22.996 91.9396 22.996 92.8289 22.8694H93.1846C95.6685 22.6485 98.0999 22.0272 100.384 21.0297C100.409 21.0619 100.441 21.0879 100.477 21.1057L100.621 21.0466C100.627 21.0131 100.627 20.9788 100.621 20.9454C101.18 20.6922 101.705 20.4306 102.222 20.1605C102.213 20.2136 102.213 20.2678 102.222 20.3209L102.654 20.0846C102.649 20.0425 102.649 20 102.654 19.958C103.428 19.5331 104.167 19.088 104.893 18.6501L104.893 18.6499C105.105 18.5225 105.315 18.3957 105.525 18.2702C108.778 16.2533 111.886 14.3292 117.383 13.8566L118.23 13.7891C118.507 13.7891 118.789 13.7769 119.077 13.7646L119.077 13.7646C119.377 13.7516 119.684 13.7384 120 13.7384V12.0506C112.259 12.0506 108.346 14.4811 104.56 16.8356C100.774 19.19 97.2671 21.3589 90.0169 21.3589C87.5609 21.3945 85.1128 21.0733 82.7499 20.4053L82.8007 20.3377L82.301 20.1774L82.157 20.2027C79.7621 19.3541 77.4853 18.2057 75.3811 16.7849C73.994 15.8849 72.5544 15.0677 71.07 14.3376C71.0743 14.2955 71.0743 14.2531 71.07 14.211L70.6635 14.0338L70.6126 14.1266C70.0536 13.865 69.4608 13.6287 68.8425 13.4093C68.8711 13.3938 68.8946 13.3703 68.9102 13.3418L68.6392 13.249C68.6538 13.2881 68.6738 13.325 68.6985 13.3587C66.5123 12.6107 64.2313 12.1732 61.9226 12.0591H61.262H59.9831C52.2417 12.0591 48.3286 14.4895 44.5426 16.844C40.7566 19.1985 37.2671 21.3082 29.9831 21.3082C28.2535 21.3185 26.5267 21.1687 24.825 20.861V20.8103L24.1728 20.6669C24.1713 20.6922 24.1713 20.7175 24.1728 20.7428L23.8171 20.6247L22.9701 20.3884V20.4643L22.5127 20.3293C22.5509 20.3229 22.5863 20.3052 22.6143 20.2787L22.3602 20.1943V20.2871C22.0384 20.1858 21.725 20.0761 21.4116 19.958C21.4165 19.9272 21.4165 19.8959 21.4116 19.8652L20.9797 19.6964V19.7892C19.6371 19.2389 18.3401 18.5843 17.1005 17.8314C17.1089 17.7811 17.1089 17.7297 17.1005 17.6795L16.7956 17.5022C16.79 17.5612 16.79 17.6205 16.7956 17.6795L15.4066 16.8356L15.2372 16.7343C15.2509 16.6846 15.2509 16.6321 15.2372 16.5824C15.1532 16.5146 15.0331 16.5146 14.9492 16.5824C14.4918 16.2955 14.0344 16.017 13.5686 15.7385V15.5781L13.2552 15.4009V15.5275C12.088 14.8487 10.8738 14.2537 9.62168 13.7469C9.69863 13.7211 9.78189 13.7211 9.85884 13.7469L9.20666 13.5021V13.5865C7.52643 12.9617 5.77801 12.5368 3.99774 12.3207H3.72671C2.49203 12.1396 1.24755 12.0325 0 12V13.6878C7.22953 13.6878 10.7704 15.8779 14.5106 18.1913L14.5426 18.2111L14.5961 18.2442C18.3323 20.5552 22.2785 22.996 29.9831 22.996ZM104.425 41.7793C108.209 39.4276 112.12 37 119.856 37L119.848 37.4046L120 37.4636V38.0199C119.945 38.0349 119.893 38.0607 119.848 38.0958V38.7111C117.298 38.6667 114.756 39.0164 112.314 39.7479V39.7563C109.847 40.5999 107.505 41.7678 105.348 43.2291C105.137 43.3551 104.926 43.4815 104.716 43.6077L104.716 43.6078C103.814 44.1485 102.916 44.6874 101.962 45.1931C102.021 45.1793 102.081 45.2028 102.115 45.2521L101.903 45.3617V45.2184C100.146 46.1615 98.2697 46.8674 96.325 47.3172C96.3298 47.3395 96.3298 47.3624 96.325 47.3847H96.215C96.2126 47.3679 96.2126 47.3509 96.215 47.3341C94.1961 47.7702 92.1357 47.9879 90.0698 47.9831H89.9175C82.4009 47.9831 78.4879 45.62 74.8092 43.3984L74.4868 43.2038L74.2857 43.0825C70.585 40.8501 67.0531 38.7195 59.9281 38.7195C52.6772 38.7195 49.0798 40.9513 45.3994 43.2346L45.3947 43.2375C41.7126 45.5218 37.8952 47.882 30.565 48H29.964C22.2366 48 18.2924 45.5529 14.5466 43.2289L14.5334 43.2207C10.7837 40.8943 7.24554 38.7027 0 38.7027V37.0169H0.846441C3.41158 37.0554 5.9565 37.4759 8.3967 38.2644C8.40128 38.2365 8.40128 38.208 8.3967 38.1801L9.02307 38.3908V38.492C11.0809 39.2795 13.0475 40.2856 14.8889 41.4927C14.8931 41.4366 14.8931 41.3803 14.8889 41.3241L15.4222 41.6529C15.3916 41.6871 15.3685 41.7273 15.3544 41.7709H15.4306C17.9234 43.4871 20.6872 44.7754 23.6072 45.5823C23.6156 45.585 23.624 45.5873 23.6326 45.5893L23.6072 45.5823C23.5656 45.5686 23.5278 45.545 23.4972 45.5134L23.8866 45.6061C23.8251 45.6182 23.7618 45.6182 23.7004 45.6061C25.7524 46.0883 27.8557 46.3204 29.964 46.2973C37.2434 46.2973 40.7477 44.1142 44.4974 41.7709C48.2472 39.4276 52.1916 37 59.9196 37.0421C62.4374 37.0086 64.9475 37.3264 67.3767 37.9862V37.9103L67.6899 37.9946L67.6391 38.0621C69.7981 38.7216 71.8612 39.6596 73.7758 40.8521V40.7088L73.9028 40.7847C73.9074 40.8323 73.9074 40.8803 73.9028 40.928L75.3756 41.7962L75.482 41.8614C79.0983 44.0792 82.4837 46.1554 89.1895 46.2973H90.036C97.1799 46.2636 100.642 44.131 104.425 41.7793ZM112.314 39.8153C112.319 39.7959 112.319 39.7757 112.314 39.7563V39.8153ZM87.2481 59.1519C88.1216 59.2275 89.0544 59.2779 90.0636 59.2779C97.323 59.2779 100.749 57.2534 104.54 54.9097C108.331 52.566 112.249 50.1467 120 50.1467V51.8268H118.66H118.406C117.063 51.8798 115.727 52.0427 114.411 52.314V52.3644H114.276V52.314C110.561 53.1121 108.068 54.6493 105.473 56.2538C102.03 58.4379 98.4 60.6136 91.853 60.958C91.3781 61 90.8947 61 90.3859 61H90.0297C82.3153 61 78.3641 58.5703 74.6232 56.2699L74.5696 56.237L74.5376 56.2173C70.7925 53.9144 67.2472 51.7344 60.0085 51.7344C57.2467 51.6797 54.4959 52.0945 51.8756 52.9609V53.0281L51.511 53.1541C51.4798 53.1432 51.453 53.1225 51.4346 53.0953C49.8104 53.7167 48.2512 54.4932 46.7788 55.4138C46.8212 55.4558 46.8212 55.4978 46.8212 55.5482L46.3548 55.8254C46.3779 55.7727 46.4203 55.7307 46.4735 55.7078L46.4226 55.6406L45.4643 56.2286C45.4685 56.2789 45.4685 56.3295 45.4643 56.3798L45.0742 56.6234C45.0418 56.5874 45.0185 56.5442 45.0064 56.4974L44.8113 56.6234H44.9216V56.6822L44.5399 56.909C44.5124 56.8728 44.4896 56.8333 44.4721 56.7914C43.9463 57.119 43.4035 57.4298 42.8438 57.7407V57.9087L42.6996 57.9927C42.7084 57.9157 42.7445 57.8442 42.8014 57.7911C38.9174 59.9932 34.4945 61.0892 30.0212 60.958C22.2791 60.958 18.3273 58.5192 14.5744 56.2032L14.5611 56.195C10.8042 53.8765 7.25936 51.6924 0 51.6924V50.0123C4.12124 49.8913 8.20616 50.8075 11.8728 52.6752C11.864 52.6365 11.864 52.5964 11.8728 52.5576L12.229 52.692C12.2331 52.7339 12.2331 52.7761 12.229 52.818C12.3686 52.8958 12.5122 52.9736 12.6571 53.0521L12.6572 53.0522L12.6572 53.0522L12.6572 53.0522L12.6573 53.0522L12.6574 53.0523L12.6575 53.0523C12.9349 53.2026 13.2168 53.3553 13.4841 53.5153V53.3641L13.8827 53.5993V53.7001L13.8403 53.7421L15.5364 54.7753C18.1908 56.4134 20.7519 57.9843 24.5936 58.7655C24.5912 58.7488 24.5912 58.7318 24.5936 58.7151L24.865 58.7739V58.8327C26.5661 59.139 28.2923 59.288 30.0212 59.2779C37.3145 59.2779 40.8254 57.119 44.5823 54.7753C48.3392 52.4316 52.2912 50.0123 60.0424 50.0123C64.4236 49.8733 68.761 50.9126 72.5936 53.0197L72.7124 52.944V53.0953C73.6707 53.6665 74.5781 54.2209 75.477 54.7753L75.4879 54.782C78.7065 56.7536 81.7587 58.6233 87.0954 59.1519H87.2481ZM24.37 58.4588C24.48 58.5488 24.57 58.5588 24.63 58.5188L24.37 58.4588ZM20.6468 19.5645L20.3568 19.4245C20.3521 19.4442 20.3521 19.4648 20.3568 19.4845C20.431 19.5631 20.5427 19.594 20.6468 19.5645ZM16.41 30.4188L16.59 30.5288C16.586 30.532 16.5819 30.5352 16.5778 30.5382C17.921 31.3511 19.3175 32.0739 20.7582 32.7017C20.77 32.6682 20.7871 32.6369 20.8089 32.6089L21.0457 32.7101V32.8198C21.5953 33.0391 22.1702 33.2331 22.779 33.4103L22.7368 33.3175C22.9989 33.4018 23.261 33.4778 23.5316 33.5452V33.6043C24.8024 33.9211 26.0979 34.13 27.4042 34.2285C27.4483 34.233 27.4927 34.2377 27.5375 34.2424C27.8269 34.2728 28.1281 34.3044 28.4357 34.3044H29.9324C37.2041 34.3044 40.6623 32.1534 44.4419 29.7998C48.2215 27.4463 52.128 25.0169 59.8563 25.0169C61.0967 25.0137 62.3362 25.0841 63.5682 25.2278H63.7035C68.9797 25.8857 72.159 27.8597 75.2537 29.783C77.3542 31.2031 79.6272 32.3512 82.018 33.1994V33.1403V33.0982L82.314 33.2163C82.3188 33.2413 82.3188 33.2671 82.314 33.2922L82.6437 33.385C82.6389 33.3627 82.6389 33.3397 82.6437 33.3175L82.8636 33.3765V33.4525C83.5804 33.6695 84.3087 33.847 85.0451 33.9839V33.9333C85.4256 34.0092 85.8484 34.0683 86.2711 34.1273H86.3219C87.0913 34.2285 87.9453 34.3129 88.8585 34.3129H89.9408C97.0772 34.2791 100.536 32.1449 104.315 29.7914C108.095 27.4379 112.001 25.0084 119.729 25.0084L120 25V26.6871H119.662C118.594 26.6865 117.527 26.7456 116.466 26.8643H116.322C113.514 27.1725 110.796 28.0326 108.323 29.3949C108.289 29.4579 108.258 29.5227 108.23 29.589L107.917 29.7155V29.5805C107.016 30.0793 106.162 30.6098 105.294 31.1489L105.211 31.2002C104.929 31.3694 104.65 31.5392 104.372 31.7084C103.418 32.2899 102.471 32.8661 101.423 33.4018C101.423 33.4069 101.43 33.4066 101.436 33.4063C101.452 33.4055 101.471 33.4046 101.423 33.4693C101.356 33.5621 101.22 33.5621 101.077 33.5621L100.409 33.8742V33.9923L99.9605 34.1779V34.0936C98.4575 34.7303 96.8897 35.2026 95.2847 35.5023V35.5529H95.0733C93.3397 35.8559 91.5824 36.0027 89.8224 35.9916C82.1815 35.9916 78.2682 33.5837 74.536 31.2873L74.4081 31.2086L74.3812 31.192C70.6201 28.8784 67.0853 26.704 59.8563 26.704C52.6225 26.704 49.0879 28.898 45.3577 31.2133L45.3382 31.2255C42.0321 33.2837 38.6246 35.4011 32.655 35.8988H32.469C31.6742 35.9663 30.8286 36 29.9324 36C22.2408 36 18.3013 33.5602 14.5715 31.2501L14.518 31.217L14.4861 31.1972C10.7521 28.8847 7.2173 26.6956 0 26.6956V25.0084H0.321308C3.45258 24.9824 6.56115 25.5403 9.48703 26.6534C9.43616 26.6128 9.3956 26.5607 9.36866 26.5015L9.53777 26.569V26.6618C10.3725 26.9903 11.1883 27.3649 11.9814 27.7837C11.9855 27.7388 11.9855 27.6937 11.9814 27.6488L12.1421 27.7331C12.1018 27.7732 12.0466 27.7946 11.9899 27.7922C13.2074 28.4333 14.3236 29.1166 15.4228 29.8083C15.7484 30.023 16.0776 30.2323 16.41 30.436V30.4188ZM77.44 5.42765L77.56 5.50765C77.53 5.54765 77.44 5.59765 77.44 5.55765V5.42765ZM98.375 35.55L98.625 35.47C98.5786 35.4433 98.5214 35.4433 98.475 35.47C98.4357 35.4883 98.4014 35.5157 98.375 35.55Z" fill="#ECEDED"/>
<path fill-rule="evenodd" clip-rule="evenodd" d="M92.5163 50.2788L88.8671 48.8298V48.5237C89.8503 47.9255 90.6118 47.004 91.0007 45.91C92.4016 45.7413 93.4909 44.559 93.4909 43.1272C93.4909 42.2833 93.1109 41.527 92.5132 41.0123V39.4412C92.5132 35.8909 89.5965 33.0027 86.0113 33.0027H85.5626C83.9946 33.0027 82.5548 33.555 81.4307 34.4735C80.7314 33.8838 80.073 33.6207 79.8902 33.5552L76.2444 32.1075V31.8012C77.2277 31.2031 77.989 30.2816 78.3781 29.1875C79.7789 29.0188 80.8683 27.8365 80.8683 26.4047C80.8683 25.5608 80.4883 24.8045 79.8906 24.2898V22.7186C79.8906 19.1683 76.9741 16.28 73.3887 16.28H72.94C71.2453 16.28 69.7005 16.9261 68.5419 17.9817C67.9478 17.5395 67.426 17.3318 67.2684 17.2753L63.6218 15.8273V15.5211C64.605 14.9229 65.3664 14.0013 65.7555 12.9073C67.1564 12.7387 68.2457 11.5563 68.2457 10.1245C68.2457 9.28067 67.8657 8.52431 67.268 8.00963V6.43855C67.268 2.88826 64.3512 0 60.7661 0H60.3174C56.7321 0 53.8155 2.8884 53.8155 6.43855V8.0007C53.2121 8.51566 52.8281 9.276 52.8281 10.1248C52.8281 11.5675 53.9339 12.7584 55.3501 12.9124C55.7397 14.0044 56.5006 14.9239 57.4822 15.5212V15.8207L53.7359 17.2734C53.5889 17.3259 53.0855 17.5235 52.504 17.9471C51.35 16.9117 49.8199 16.2802 48.1435 16.2802H47.6948C44.1095 16.2802 41.1929 19.1684 41.1929 22.7187V24.2809C40.5895 24.7958 40.2055 25.5562 40.2055 26.4049C40.2055 27.8476 41.3113 29.0386 42.7275 29.1926C43.1171 30.2845 43.8778 31.204 44.8596 31.8014V32.1009L41.1138 33.5534C40.9423 33.6146 40.2999 33.8682 39.6092 34.4394C38.4915 33.5418 37.0689 33.0027 35.521 33.0027H35.0723C31.4871 33.0027 28.5704 35.8908 28.5704 39.4412V41.0034C27.967 41.5183 27.5829 42.2787 27.5829 43.1274C27.5829 44.5701 28.6887 45.7611 30.1049 45.915C30.4945 47.007 31.2553 47.9265 32.237 48.5238V48.8233L28.488 50.2772C28.091 50.4207 25 51.6634 25 55.563V58.8918C25 59.5034 25.5006 60 26.1181 60H29.1057C29.7233 60 30.2238 59.5044 30.2238 58.8928C30.2238 58.2812 29.7233 57.7856 29.1057 57.7856H27.2364V55.5632C27.2364 53.1477 29.0427 52.4334 29.2378 52.3635C29.2551 52.3577 29.2722 52.3515 29.2893 52.3449L32.7197 51.0146L34.5164 52.7477C34.7252 52.9493 35.0053 53.0619 35.2965 53.0619C35.3023 53.0619 35.3083 53.0619 35.3141 53.0617C35.6117 53.0572 35.8952 52.9353 36.1017 52.723L37.7935 50.9844L41.2116 52.3416C41.2313 52.3496 41.2514 52.3569 41.2715 52.3635C41.2914 52.3701 43.2732 53.0586 43.2732 55.5632V57.7856H38.1547H32.5048H32.1068C31.4892 57.7856 30.9887 58.2812 30.9887 58.8928C30.9887 59.5044 31.4892 60 32.1068 60H32.5048H38.1547H44.3913C45.009 60 45.5094 59.4977 45.5094 58.8862V55.563C45.5094 51.6789 42.443 50.4305 42.0259 50.2788L38.3767 48.8298V48.5237C39.3599 47.9255 40.1213 47.004 40.5104 45.91C41.8617 45.7472 42.9195 44.6404 42.9928 43.2772H45.1271H50.7773H52.836C52.9099 44.6514 53.9838 45.766 55.3503 45.9148C55.7398 47.0067 56.5007 47.9262 57.4824 48.5236V48.8231L53.7334 50.2769C53.3364 50.4204 50.2454 51.6631 50.2454 55.5629V58.8917C50.2454 59.5033 50.7458 59.9999 51.3635 59.9999H54.351C54.9687 59.9999 55.4691 59.5043 55.4691 58.8926C55.4691 58.281 54.9687 57.7854 54.351 57.7854H52.4813V55.563C52.4813 53.1476 54.2876 52.4332 54.4827 52.3633C54.5001 52.3576 54.5173 52.3514 54.5342 52.3448L57.9647 51.0144L59.7613 52.7476C59.9701 52.9491 60.2503 53.0617 60.5415 53.0617C60.5473 53.0617 60.5533 53.0617 60.5591 53.0616C60.8567 53.0571 61.1401 52.9351 61.3466 52.7228L63.0385 50.9842L66.4566 52.3415C66.4763 52.3495 66.4964 52.3567 66.5166 52.3633C66.5365 52.3699 68.5183 53.0584 68.5183 55.563V57.7854H63.3998H57.7497H57.3517C56.7341 57.7854 56.2336 58.281 56.2336 58.8926C56.2336 59.5043 56.7341 59.9999 57.3517 59.9999H57.7497H63.3998H69.6364C70.254 59.9999 70.7545 59.4975 70.7545 58.8861V55.5629C70.7545 51.6788 67.6881 50.4304 67.2709 50.2787L63.6218 48.8297V48.5236C64.605 47.9254 65.3664 47.0038 65.7555 45.9098C67.1067 45.7471 68.1645 44.6403 68.2379 43.2771H70.3722H76.0221H78.0808C78.1547 44.6513 79.2286 45.7659 80.5951 45.9146C80.9846 47.0066 81.7455 47.9261 82.7272 48.5234V48.8229L78.9782 50.2767C78.5811 50.4202 75.4899 51.663 75.4899 55.5628V58.8915C75.4899 59.5032 75.9903 59.9997 76.608 59.9997H79.5955C80.213 59.9997 80.7136 59.5041 80.7136 58.8925C80.7136 58.2809 80.213 57.7853 79.5955 57.7853H77.7261V55.5629C77.7261 53.1474 79.5324 52.433 79.7276 52.3632C79.7449 52.3574 79.7621 52.3512 79.779 52.3447L83.2095 51.0143L85.0061 52.7474C85.2149 52.949 85.4951 53.0616 85.7863 53.0616C85.7921 53.0616 85.798 53.0616 85.8039 53.0615C86.1015 53.0569 86.3849 52.935 86.5914 52.7227L88.2832 50.9841L91.7013 52.3414C91.721 52.3493 91.7411 52.3566 91.7612 52.3632C91.7812 52.3698 93.7629 53.0583 93.7629 55.5629V57.7853H88.6444H82.9953H82.5975C81.9799 57.7853 81.4794 58.2809 81.4794 58.8925C81.4794 59.5041 81.9799 59.9997 82.5975 59.9997H82.9953H88.6453H94.8819C95.4995 59.9997 96 59.4974 96 58.8859V55.5628C96 51.6791 92.9334 50.4307 92.5163 50.2788ZM36.1406 49.4914L35.2716 50.3845L34.4735 49.6147V49.2449C34.6075 49.2555 34.7427 49.2625 34.8793 49.2625H35.7349C35.8716 49.2625 36.0065 49.2555 36.1405 49.2449V49.4914H36.1406ZM38.5611 44.2496C38.561 45.7927 37.2933 47.0481 35.735 47.0481H34.8794C33.3211 47.0481 32.0533 45.7927 32.0533 44.2497V41.9531C33.279 41.8045 35.2749 41.3729 36.8815 40.124C37.2543 40.7061 37.7951 41.307 38.5611 41.692V44.2496ZM39.7869 39.8039C38.6999 39.4455 38.3265 37.9517 38.3241 37.9421C38.2272 37.5177 37.888 37.1889 37.4576 37.1019C37.0273 37.0146 36.5849 37.1852 36.3276 37.5378C34.6819 39.7908 30.9761 39.8164 30.9381 39.8164C30.9368 39.8164 30.9358 39.8164 30.9349 39.8164C30.8965 39.8164 30.8582 39.8183 30.8209 39.8221C30.8162 39.8225 30.8115 39.8236 30.8069 39.8242V39.4415C30.8069 37.1122 32.7204 35.2174 35.0726 35.2174H35.5213C37.8733 35.2174 39.7869 37.1122 39.7869 39.4413V39.8039ZM76.4288 27.5273C76.4287 29.0702 75.1609 30.3256 73.6027 30.3256H72.7471C71.1888 30.3256 69.921 29.0702 69.921 27.5273V25.2274C71.1469 25.0786 73.1435 24.6497 74.7492 23.4017C75.122 23.9839 75.6628 24.5848 76.4288 24.9698V27.5273ZM74.0084 32.5226V32.7689L73.1394 33.6621L72.3413 32.8922V32.5224C72.4753 32.533 72.6105 32.54 72.7471 32.54H73.6027C73.7394 32.5402 73.8743 32.5332 74.0084 32.5226ZM68.6746 22.7189C68.6746 20.3896 70.5881 18.4947 72.9403 18.4947H73.389C75.741 18.4947 77.6545 20.3896 77.6545 22.7187V23.0812C76.5676 22.7228 76.1942 21.2291 76.192 21.2195C76.095 20.7951 75.7558 20.4662 75.3254 20.3793C74.8951 20.2923 74.4529 20.4625 74.1954 20.8152C72.5498 23.0682 68.8439 23.0937 68.8058 23.0937C68.8045 23.0937 68.8035 23.0937 68.8024 23.0937C68.764 23.0937 68.7257 23.0957 68.6883 23.0995C68.6837 23.0999 68.6789 23.101 68.6743 23.1016V22.7189H68.6746ZM56.1833 6.81357C56.182 6.81357 56.1811 6.81357 56.1801 6.81357C56.1417 6.81357 56.1034 6.81549 56.066 6.81934C56.0613 6.81975 56.0565 6.82085 56.052 6.8214V6.43868C56.052 4.10945 57.9655 2.21457 60.3176 2.21457H60.7664C63.1184 2.21457 65.0319 4.10945 65.0319 6.43855V6.80107C63.945 6.44267 63.5716 4.94889 63.5692 4.93928C63.4723 4.51496 63.1331 4.18608 62.7027 4.09915C62.2722 4.01182 61.8301 4.18223 61.5726 4.53501C59.9271 6.78803 56.2213 6.81357 56.1833 6.81357ZM57.2986 11.2471V8.94753H57.2985C58.5242 8.79895 60.5201 8.37023 62.1268 7.12158C62.4995 7.70368 63.0403 8.3046 63.8064 8.68964V11.2471C63.8064 12.79 62.5386 14.0454 60.9804 14.0454H60.1248C58.5664 14.0454 57.2986 12.79 57.2986 11.2471ZM61.3858 16.2424V16.4888L60.5168 17.3819L59.7187 16.6121V16.2423C59.8528 16.2528 59.9879 16.2598 60.1246 16.2598H60.9802C61.1168 16.26 61.2517 16.253 61.3858 16.2424ZM54.4829 19.3604C54.5004 19.3549 54.5174 19.3487 54.5345 19.3421L57.9649 18.0118L59.7616 19.7449C59.9704 19.9465 60.2505 20.0591 60.5417 20.0591C60.5476 20.0591 60.5535 20.0591 60.5594 20.059C60.8569 20.0544 61.1404 19.9325 61.3469 19.7202L63.0388 17.9816L66.4569 19.3388C66.4768 19.3468 66.4969 19.3542 66.517 19.3607C66.5204 19.3621 66.8189 19.473 67.1798 19.7379C66.7072 20.6299 66.4382 21.6435 66.4382 22.7187V24.2809C66.2647 24.429 66.1098 24.5975 65.9764 24.7826H63.3998H57.7497H55.0972C54.9667 24.6012 54.815 24.4359 54.6456 24.2898V22.7184C54.6456 21.6258 54.3683 20.5962 53.8813 19.6938C54.2165 19.4589 54.4834 19.3604 54.4829 19.3604ZM43.5608 23.0937C43.5596 23.0937 43.5586 23.0937 43.5576 23.0937C43.5192 23.0937 43.4809 23.0957 43.4436 23.0995C43.4391 23.0999 43.4342 23.101 43.4296 23.1016V22.7189C43.4295 20.3896 45.343 18.4947 47.6952 18.4947H48.1439C50.4959 18.4947 52.4095 20.3896 52.4095 22.7187V23.0812C51.3226 22.7228 50.9491 21.2291 50.9468 21.2195C50.8498 20.7951 50.5106 20.4662 50.0805 20.3793C49.6499 20.2923 49.2078 20.4625 48.9504 20.8152C47.3047 23.0682 43.5988 23.0937 43.5608 23.0937ZM44.676 27.5273V25.2274H44.6759C45.9019 25.0786 47.8985 24.6497 49.5042 23.4017C49.8769 23.9839 50.4177 24.5848 51.1837 24.9698V27.5273C51.1837 29.0702 49.916 30.3256 48.3578 30.3256H47.5021C45.9438 30.3256 44.676 29.0702 44.676 27.5273ZM47.0963 32.5226C47.2301 32.5332 47.3653 32.5402 47.5019 32.5402H48.3575C48.4942 32.5402 48.6291 32.5333 48.7631 32.5226V32.7689L47.894 33.6621L47.0961 32.8922V32.5226H47.0963ZM53.816 39.4412V41.0034C53.7936 41.0227 53.7719 41.043 53.75 41.0628H50.7774H45.1274H42.0792C42.0607 41.0459 42.0422 41.0289 42.0232 41.0123V39.4412C42.0232 38.2218 41.679 37.0804 41.0821 36.1073C41.4957 35.7757 41.861 35.641 41.8606 35.641C41.8779 35.6352 41.8949 35.629 41.912 35.6225L45.3425 34.2921L47.1391 36.0252C47.3479 36.2268 47.6281 36.3394 47.9193 36.3394C47.9251 36.3394 47.9311 36.3394 47.9369 36.3393C48.2345 36.3347 48.5181 36.2128 48.7244 36.0005L50.4162 34.2619L53.8343 35.6192C53.854 35.6271 53.8632 35.6306 53.8833 35.6373C53.8881 35.6391 54.2912 35.786 54.7303 36.1539C54.1504 37.1165 53.816 38.2407 53.816 39.4412ZM61.3858 49.4914L60.5168 50.3845L59.7187 49.6147V49.2449C59.8528 49.2555 59.9879 49.2625 60.1246 49.2625H60.9802C61.117 49.2625 61.2519 49.2555 61.3858 49.2449V49.4914ZM63.8062 44.2496C63.8061 45.7927 62.5383 47.0481 60.9801 47.0481H60.1245C58.5662 47.0481 57.2983 45.7927 57.2983 44.2497V41.9531C58.5241 41.8043 60.52 41.3729 62.1266 40.124C62.4994 40.7061 63.0402 41.307 63.8062 41.692V44.2496V44.2496ZM65.0319 39.8039C63.945 39.4455 63.5716 37.9517 63.5692 37.9421C63.4723 37.5177 63.1331 37.1889 62.7027 37.1019C62.2722 37.0146 61.8301 37.1852 61.5726 37.5378C59.9271 39.7907 56.2214 39.8162 56.1833 39.8162C56.182 39.8162 56.1811 39.8162 56.1801 39.8162C56.1417 39.8162 56.1034 39.8181 56.066 39.822C56.0613 39.8224 56.0565 39.8235 56.052 39.824V39.4413C56.052 37.1122 57.9655 35.2174 60.3175 35.2174H60.7662C63.1183 35.2174 65.0318 37.1122 65.0318 39.4413V39.8039H65.0319ZM64.8546 34.4393C63.7369 33.5418 62.3142 33.0026 60.7664 33.0026H60.3176C58.75 33.0026 57.3103 33.5548 56.1862 34.4731C55.4867 33.8831 54.8279 33.6207 54.6454 33.5552L50.9995 32.1075V31.8012C51.9828 31.2031 52.7441 30.2816 53.1332 29.1875C54.3351 29.0427 55.3065 28.1519 55.5584 26.9972H57.75H63.4H65.5159C65.7699 28.1625 66.7563 29.0602 67.9729 29.1924C68.3624 30.2844 69.123 31.2039 70.105 31.8012V32.1007L66.3593 33.5532C66.1879 33.6143 65.5454 33.868 64.8546 34.4393ZM79.0608 39.4412V41.0034C79.0383 41.0227 79.0167 41.043 78.9948 41.0628H76.0224H70.3725H67.3243C67.3057 41.0459 67.2873 41.0289 67.2683 41.0123V39.4412C67.2683 38.2218 66.9241 37.0804 66.327 36.1073C66.7407 35.7757 67.1062 35.641 67.1055 35.641C67.1228 35.6352 67.1399 35.629 67.1569 35.6225L70.5874 34.2921L72.384 36.0252C72.5929 36.2268 72.873 36.3394 73.1642 36.3394C73.17 36.3394 73.176 36.3394 73.1818 36.3393C73.4794 36.3347 73.763 36.2128 73.9693 36.0005L75.6611 34.2619L79.0793 35.6192C79.0989 35.6271 79.1191 35.6344 79.1392 35.641C79.1437 35.6426 79.5388 35.7871 79.9749 36.1539C79.3953 37.1165 79.0608 38.2407 79.0608 39.4412ZM81.4285 39.8162C81.4272 39.8162 81.4263 39.8162 81.4253 39.8162C81.3869 39.8162 81.3486 39.8181 81.3113 39.822C81.3066 39.8224 81.3019 39.8235 81.2973 39.824V39.4413C81.2972 37.1121 83.2107 35.2172 85.5629 35.2172H86.0116C88.3636 35.2172 90.2771 37.1121 90.2771 39.4412V39.8039C89.1902 39.4455 88.8168 37.9517 88.8146 37.9421C88.7176 37.5177 88.3785 37.1889 87.948 37.1019C87.5176 37.0146 87.0754 37.1852 86.818 37.5378C85.1725 39.7907 81.4665 39.8162 81.4285 39.8162ZM86.631 49.4914L85.762 50.3845L84.9639 49.6147V49.2449C85.0979 49.2555 85.2331 49.2625 85.3697 49.2625H86.2253C86.362 49.2625 86.497 49.2555 86.6309 49.2449V49.4914H86.631ZM86.2254 47.0481H85.3698C83.8116 47.0481 82.5437 45.7927 82.5437 44.2497V41.9533H82.5436C83.7693 41.8046 85.7653 41.373 87.3718 40.1242C87.7446 40.7063 88.2854 41.3072 89.0514 41.6923V44.2497C89.0514 45.7927 87.7837 47.0481 86.2254 47.0481Z" fill="url(#paint0_linear_113_2)"/>
<defs>
<linearGradient id="paint0_linear_113_2" x1="25.0768" y1="0" x2="25.0768" y2="59.8701" gradientUnits="userSpaceOnUse">
<stop stop-color="#09A8D6"/>
<stop offset="1" stop-color="#13328F"/>
</linearGradient>
</defs>
</svg>
