<svg width="120" height="61" viewBox="0 0 120 61" fill="none" xmlns="http://www.w3.org/2000/svg">
<path fill-rule="evenodd" clip-rule="evenodd" d="M30 10.9995C31.6778 11.0094 33.3534 10.8764 35.0085 10.6018H35.2627V10.551C39.7288 9.74723 42.6186 7.95347 45.4322 6.20201L45.5127 6.15241C48.8724 4.08087 52.0378 2.12913 57.839 1.74299H58.4068H59.9915C67.2104 1.69253 70.7537 3.874 74.5078 6.18527L74.5763 6.2274L74.6823 6.29265C78.4291 8.59969 82.3266 10.9995 90 10.9995C97.7458 10.9995 101.695 8.58805 105.449 6.2274C107.091 5.13979 108.82 4.18894 110.619 3.38445C110.611 3.4179 110.611 3.45254 110.619 3.48599L110.915 3.35061C110.915 3.35061 110.915 3.29984 110.856 3.27446C111.441 3.03755 112.059 2.82602 112.703 2.63141C112.703 2.63141 112.703 2.68218 112.746 2.6991H112.864C112.861 2.67385 112.861 2.6482 112.864 2.62295C115.186 1.97192 117.589 1.65846 120 1.69223V0C112.254 0 108.339 2.43681 104.551 4.79746C100.763 7.15812 97.2542 9.30725 90 9.30725C82.7458 9.30725 79.1949 7.12428 75.4237 4.79746L75.2203 4.67055C75.2261 4.62277 75.2261 4.57448 75.2203 4.52671L74.0593 3.82443V3.96827L73.5424 3.66367C73.579 3.63621 73.6058 3.59762 73.6186 3.55368L73.4237 3.38445C73.3779 3.40267 73.3372 3.4317 73.3051 3.46907C72.6864 3.13908 72.0339 2.79218 71.3729 2.45373L71.4237 2.3522L70.9492 2.13221C70.9121 2.16181 70.8685 2.18212 70.822 2.19143C69.995 1.80906 69.146 1.47568 68.2797 1.19302V1.10841L67.6271 0.913803L67.5763 0.981492C67.1186 0.846114 66.6441 0.727658 66.1441 0.617663V0.566896L65.839 0.507668C65.8353 0.524392 65.8353 0.541712 65.839 0.558435C64.7426 0.333243 63.633 0.17781 62.5169 0.0930725H62.0254C61.3729 0 60.7034 0 60 0C52.2542 0 48.3051 2.43681 44.5508 4.79746C40.7966 7.15812 37.2881 9.30725 30.1186 9.30725H29.7373C27.5175 9.31432 25.3065 9.02984 23.161 8.46114V8.38499L22.6441 8.23269C22.6469 8.25233 22.6469 8.27227 22.6441 8.29191H22.5932L21.8898 8.06346L21.7966 7.94501L21.1102 7.67425V7.78425L20.7712 7.65733C20.7341 7.61372 20.6833 7.5839 20.6271 7.57272V7.61502C19.8729 7.30196 19.1695 6.95506 18.4831 6.59123C18.4556 6.51459 18.4155 6.44309 18.3644 6.3797L18.1356 6.25278C18.0747 6.23492 18.01 6.23492 17.9492 6.25278C17.9531 6.26947 17.9531 6.28686 17.9492 6.30355L17.2966 5.9228L17.4068 5.82972L16.4915 5.27975C16.4874 5.33608 16.4874 5.39264 16.4915 5.44897L15.4237 4.79746C12 2.64834 8.47458 0.44844 2 0.0676891H1.38983C0.957627 0 0.483051 0 0 0V1.69223C7.25424 1.69223 10.7966 3.89212 14.5508 6.2274C18.3051 8.56267 22.2542 10.9995 30 10.9995ZM17.2458 5.9228C17.0763 5.82974 16.9153 5.72821 16.7543 5.62669L16.7542 5.62666C16.9492 5.55051 17.1271 5.60973 17.2458 5.9228ZM29.9831 22.996C33.004 23.0488 36.0109 22.5747 38.8679 21.5952V21.6711L39.3252 21.5108V21.4011C41.4502 20.5333 43.4843 19.4592 45.3981 18.1942L45.4176 18.1821C49.1541 15.8658 52.6947 13.6709 59.9407 13.6709C67.1448 13.6709 70.7029 15.8571 74.449 18.1588L74.5342 18.2111L74.6623 18.2898C78.4008 20.5872 82.3207 22.996 89.9746 22.996C90.991 22.996 91.9396 22.996 92.8289 22.8694H93.1846C95.6685 22.6485 98.0999 22.0272 100.384 21.0297C100.409 21.0619 100.441 21.0879 100.477 21.1057L100.621 21.0466C100.627 21.0131 100.627 20.9788 100.621 20.9454C101.18 20.6922 101.705 20.4306 102.222 20.1605C102.213 20.2136 102.213 20.2678 102.222 20.3209L102.654 20.0846C102.649 20.0425 102.649 20 102.654 19.958C103.428 19.5331 104.167 19.088 104.893 18.6501L104.893 18.6499C105.105 18.5225 105.315 18.3957 105.525 18.2702C108.778 16.2533 111.886 14.3292 117.383 13.8566L118.23 13.7891C118.507 13.7891 118.789 13.7769 119.077 13.7646L119.077 13.7646C119.377 13.7516 119.684 13.7384 120 13.7384V12.0506C112.259 12.0506 108.346 14.4811 104.56 16.8356C100.774 19.19 97.2671 21.3589 90.0169 21.3589C87.5609 21.3945 85.1128 21.0733 82.7499 20.4053L82.8007 20.3377L82.301 20.1774L82.157 20.2027C79.7621 19.3541 77.4853 18.2057 75.3811 16.7849C73.994 15.8849 72.5544 15.0677 71.07 14.3376C71.0743 14.2955 71.0743 14.2531 71.07 14.211L70.6635 14.0338L70.6126 14.1266C70.0536 13.865 69.4608 13.6287 68.8425 13.4093C68.8711 13.3938 68.8946 13.3703 68.9102 13.3418L68.6392 13.249C68.6538 13.2881 68.6738 13.325 68.6985 13.3587C66.5123 12.6107 64.2313 12.1732 61.9226 12.0591H61.262H59.9831C52.2417 12.0591 48.3286 14.4895 44.5426 16.844C40.7566 19.1985 37.2671 21.3082 29.9831 21.3082C28.2535 21.3185 26.5267 21.1687 24.825 20.861V20.8103L24.1728 20.6669C24.1713 20.6922 24.1713 20.7175 24.1728 20.7428L23.8171 20.6247L22.9701 20.3884V20.4643L22.5127 20.3293C22.5509 20.3229 22.5863 20.3052 22.6143 20.2787L22.3602 20.1943V20.2871C22.0384 20.1858 21.725 20.0761 21.4116 19.958C21.4165 19.9272 21.4165 19.8959 21.4116 19.8652L20.9797 19.6964V19.7892C19.6371 19.2389 18.3401 18.5843 17.1005 17.8314C17.1089 17.7811 17.1089 17.7297 17.1005 17.6795L16.7956 17.5022C16.79 17.5612 16.79 17.6205 16.7956 17.6795L15.4066 16.8356L15.2372 16.7343C15.2509 16.6846 15.2509 16.6321 15.2372 16.5824C15.1532 16.5146 15.0331 16.5146 14.9492 16.5824C14.4918 16.2955 14.0344 16.017 13.5686 15.7385V15.5781L13.2552 15.4009V15.5275C12.088 14.8487 10.8738 14.2537 9.62168 13.7469C9.69863 13.7211 9.78189 13.7211 9.85884 13.7469L9.20666 13.5021V13.5865C7.52643 12.9617 5.77801 12.5368 3.99774 12.3207H3.72671C2.49203 12.1396 1.24755 12.0325 0 12V13.6878C7.22953 13.6878 10.7704 15.8779 14.5106 18.1913L14.5426 18.2111L14.5961 18.2442C18.3323 20.5552 22.2785 22.996 29.9831 22.996ZM104.425 41.7793C108.209 39.4276 112.12 37 119.856 37L119.848 37.4046L120 37.4636V38.0199C119.945 38.0349 119.893 38.0607 119.848 38.0958V38.7111C117.298 38.6667 114.756 39.0164 112.314 39.7479V39.7563C109.847 40.5999 107.505 41.7678 105.348 43.2291C105.137 43.3551 104.926 43.4815 104.716 43.6077L104.716 43.6078C103.814 44.1485 102.916 44.6874 101.962 45.1931C102.021 45.1793 102.081 45.2028 102.115 45.2521L101.903 45.3617V45.2184C100.146 46.1615 98.2697 46.8674 96.325 47.3172C96.3298 47.3395 96.3298 47.3624 96.325 47.3847H96.215C96.2126 47.3679 96.2126 47.3509 96.215 47.3341C94.1961 47.7702 92.1357 47.9879 90.0698 47.9831H89.9175C82.4009 47.9831 78.4879 45.62 74.8092 43.3984L74.4868 43.2038L74.2857 43.0825C70.585 40.8501 67.0531 38.7195 59.9281 38.7195C52.6772 38.7195 49.0798 40.9513 45.3994 43.2346L45.3947 43.2375C41.7126 45.5218 37.8952 47.882 30.565 48H29.964C22.2366 48 18.2924 45.5529 14.5466 43.2289L14.5334 43.2207C10.7837 40.8943 7.24554 38.7027 0 38.7027V37.0169H0.846441C3.41158 37.0554 5.9565 37.4759 8.3967 38.2644C8.40128 38.2365 8.40128 38.208 8.3967 38.1801L9.02307 38.3908V38.492C11.0809 39.2795 13.0475 40.2856 14.8889 41.4927C14.8931 41.4366 14.8931 41.3803 14.8889 41.3241L15.4222 41.6529C15.3916 41.6871 15.3685 41.7273 15.3544 41.7709H15.4306C17.9234 43.4871 20.6872 44.7754 23.6072 45.5823C23.6156 45.585 23.624 45.5873 23.6326 45.5893L23.6072 45.5823C23.5656 45.5686 23.5278 45.545 23.4972 45.5134L23.8866 45.6061C23.8251 45.6182 23.7618 45.6182 23.7004 45.6061C25.7524 46.0883 27.8557 46.3204 29.964 46.2973C37.2434 46.2973 40.7477 44.1142 44.4974 41.7709C48.2472 39.4276 52.1916 37 59.9196 37.0421C62.4374 37.0086 64.9475 37.3264 67.3767 37.9862V37.9103L67.6899 37.9946L67.6391 38.0621C69.7981 38.7216 71.8612 39.6596 73.7758 40.8521V40.7088L73.9028 40.7847C73.9074 40.8323 73.9074 40.8803 73.9028 40.928L75.3756 41.7962L75.482 41.8614C79.0983 44.0792 82.4837 46.1554 89.1895 46.2973H90.036C97.1799 46.2636 100.642 44.131 104.425 41.7793ZM112.314 39.8153C112.319 39.7959 112.319 39.7757 112.314 39.7563V39.8153ZM87.2481 59.1519C88.1216 59.2275 89.0544 59.2779 90.0636 59.2779C97.323 59.2779 100.749 57.2534 104.54 54.9097C108.331 52.566 112.249 50.1467 120 50.1467V51.8268H118.66H118.406C117.063 51.8798 115.727 52.0427 114.411 52.314V52.3644H114.276V52.314C110.561 53.1121 108.068 54.6493 105.473 56.2538C102.03 58.4379 98.4 60.6136 91.853 60.958C91.3781 61 90.8947 61 90.3859 61H90.0297C82.3153 61 78.3641 58.5703 74.6232 56.2699L74.5696 56.237L74.5376 56.2173C70.7925 53.9144 67.2472 51.7344 60.0085 51.7344C57.2467 51.6797 54.4959 52.0945 51.8756 52.9609V53.0281L51.511 53.1541C51.4798 53.1432 51.453 53.1225 51.4346 53.0953C49.8104 53.7167 48.2512 54.4932 46.7788 55.4138C46.8212 55.4558 46.8212 55.4978 46.8212 55.5482L46.3548 55.8254C46.3779 55.7727 46.4203 55.7307 46.4735 55.7078L46.4226 55.6406L45.4643 56.2286C45.4685 56.2789 45.4685 56.3295 45.4643 56.3798L45.0742 56.6234C45.0418 56.5874 45.0185 56.5442 45.0064 56.4974L44.8113 56.6234H44.9216V56.6822L44.5399 56.909C44.5124 56.8728 44.4896 56.8333 44.4721 56.7914C43.9463 57.119 43.4035 57.4298 42.8438 57.7407V57.9087L42.6996 57.9927C42.7084 57.9157 42.7445 57.8442 42.8014 57.7911C38.9174 59.9932 34.4945 61.0892 30.0212 60.958C22.2791 60.958 18.3273 58.5192 14.5744 56.2032L14.5611 56.195C10.8042 53.8765 7.25936 51.6924 0 51.6924V50.0123C4.12124 49.8913 8.20616 50.8075 11.8728 52.6752C11.864 52.6365 11.864 52.5964 11.8728 52.5576L12.229 52.692C12.2331 52.7339 12.2331 52.7761 12.229 52.818C12.3686 52.8958 12.5122 52.9736 12.6571 53.0521L12.6572 53.0522L12.6572 53.0522L12.6572 53.0522L12.6573 53.0522L12.6574 53.0523L12.6575 53.0523C12.9349 53.2026 13.2168 53.3553 13.4841 53.5153V53.3641L13.8827 53.5993V53.7001L13.8403 53.7421L15.5364 54.7753C18.1908 56.4134 20.7519 57.9843 24.5936 58.7655C24.5912 58.7488 24.5912 58.7318 24.5936 58.7151L24.865 58.7739V58.8327C26.5661 59.139 28.2923 59.288 30.0212 59.2779C37.3145 59.2779 40.8254 57.119 44.5823 54.7753C48.3392 52.4316 52.2912 50.0123 60.0424 50.0123C64.4236 49.8733 68.761 50.9126 72.5936 53.0197L72.7124 52.944V53.0953C73.6707 53.6665 74.5781 54.2209 75.477 54.7753L75.4879 54.782C78.7065 56.7536 81.7587 58.6233 87.0954 59.1519H87.2481ZM24.37 58.4588C24.48 58.5488 24.57 58.5588 24.63 58.5188L24.37 58.4588ZM20.6468 19.5645L20.3568 19.4245C20.3521 19.4442 20.3521 19.4648 20.3568 19.4845C20.431 19.5631 20.5427 19.594 20.6468 19.5645ZM16.41 30.4188L16.59 30.5288C16.586 30.532 16.5819 30.5352 16.5778 30.5382C17.921 31.3511 19.3175 32.0739 20.7582 32.7017C20.77 32.6682 20.7871 32.6369 20.8089 32.6089L21.0457 32.7101V32.8198C21.5953 33.0391 22.1702 33.2331 22.779 33.4103L22.7368 33.3175C22.9989 33.4018 23.261 33.4778 23.5316 33.5452V33.6043C24.8024 33.9211 26.0979 34.13 27.4042 34.2285C27.4483 34.233 27.4927 34.2377 27.5375 34.2424C27.8269 34.2728 28.1281 34.3044 28.4357 34.3044H29.9324C37.2041 34.3044 40.6623 32.1534 44.4419 29.7998C48.2215 27.4463 52.128 25.0169 59.8563 25.0169C61.0967 25.0137 62.3362 25.0841 63.5682 25.2278H63.7035C68.9797 25.8857 72.159 27.8597 75.2537 29.783C77.3542 31.2031 79.6272 32.3512 82.018 33.1994V33.1403V33.0982L82.314 33.2163C82.3188 33.2413 82.3188 33.2671 82.314 33.2922L82.6437 33.385C82.6389 33.3627 82.6389 33.3397 82.6437 33.3175L82.8636 33.3765V33.4525C83.5804 33.6695 84.3087 33.847 85.0451 33.9839V33.9333C85.4256 34.0092 85.8484 34.0683 86.2711 34.1273H86.3219C87.0913 34.2285 87.9453 34.3129 88.8585 34.3129H89.9408C97.0772 34.2791 100.536 32.1449 104.315 29.7914C108.095 27.4379 112.001 25.0084 119.729 25.0084L120 25V26.6871H119.662C118.594 26.6865 117.527 26.7456 116.466 26.8643H116.322C113.514 27.1725 110.796 28.0326 108.323 29.3949C108.289 29.4579 108.258 29.5227 108.23 29.589L107.917 29.7155V29.5805C107.016 30.0793 106.162 30.6098 105.294 31.1489L105.211 31.2002C104.929 31.3694 104.65 31.5392 104.372 31.7084C103.418 32.2899 102.471 32.8661 101.423 33.4018C101.423 33.4069 101.43 33.4066 101.436 33.4063C101.452 33.4055 101.471 33.4046 101.423 33.4693C101.356 33.5621 101.22 33.5621 101.077 33.5621L100.409 33.8742V33.9923L99.9605 34.1779V34.0936C98.4575 34.7303 96.8897 35.2026 95.2847 35.5023V35.5529H95.0733C93.3397 35.8559 91.5824 36.0027 89.8224 35.9916C82.1815 35.9916 78.2682 33.5837 74.536 31.2873L74.4081 31.2086L74.3812 31.192C70.6201 28.8784 67.0853 26.704 59.8563 26.704C52.6225 26.704 49.0879 28.898 45.3577 31.2133L45.3382 31.2255C42.0321 33.2837 38.6246 35.4011 32.655 35.8988H32.469C31.6742 35.9663 30.8286 36 29.9324 36C22.2408 36 18.3013 33.5602 14.5715 31.2501L14.518 31.217L14.4861 31.1972C10.7521 28.8847 7.2173 26.6956 0 26.6956V25.0084H0.321308C3.45258 24.9824 6.56115 25.5403 9.48703 26.6534C9.43616 26.6128 9.3956 26.5607 9.36866 26.5015L9.53777 26.569V26.6618C10.3725 26.9903 11.1883 27.3649 11.9814 27.7837C11.9855 27.7388 11.9855 27.6937 11.9814 27.6488L12.1421 27.7331C12.1018 27.7732 12.0466 27.7946 11.9899 27.7922C13.2074 28.4333 14.3236 29.1166 15.4228 29.8083C15.7484 30.023 16.0776 30.2323 16.41 30.436V30.4188ZM77.44 5.42765L77.56 5.50765C77.53 5.54765 77.44 5.59765 77.44 5.55765V5.42765ZM98.375 35.55L98.625 35.47C98.5786 35.4433 98.5214 35.4433 98.475 35.47C98.4357 35.4883 98.4014 35.5157 98.375 35.55Z" fill="#ECEDED"/>
<path fill-rule="evenodd" clip-rule="evenodd" d="M42.1211 13.461C40.8481 14.4491 39.2518 15.0395 37.5194 15.0395C33.3732 15.0395 30 11.666 30 7.51957C30 3.37324 33.3732 0 37.5194 0C41.666 0 45.0395 3.37324 45.0395 7.51969C45.0395 9.25219 44.4491 10.8484 43.4611 12.1212L50.2767 18.9369C50.6466 19.3069 50.6466 19.9066 50.2767 20.2767C50.0916 20.4616 49.8491 20.5541 49.6067 20.5541C49.3644 20.5541 49.1218 20.4616 48.9368 20.2767L42.1211 13.461ZM43.1447 7.51957C43.1447 4.41809 40.6213 1.89469 37.5194 1.89469C34.418 1.89469 31.8947 4.4182 31.8947 7.51957C31.8947 10.6213 34.418 13.1448 37.5194 13.1447C40.6212 13.1447 43.1447 10.6213 43.1447 7.51957ZM81.1668 9.94523C81.3501 10.1214 81.5864 10.2093 81.8229 10.2093C82.0599 10.2093 82.2968 10.1208 82.4802 9.94394L85.723 6.81926C86.0997 6.45621 86.1108 5.85645 85.7477 5.4798C85.3849 5.10328 84.7852 5.09191 84.4083 5.45508L81.8217 7.94742L80.5506 6.72691C80.1731 6.36445 79.5736 6.37652 79.2112 6.75422C78.8489 7.13156 78.861 7.73133 79.2385 8.09379L81.1668 9.94523ZM77.8788 46.539C79.1515 45.551 80.7477 44.9606 82.48 44.9606C86.6265 44.9606 89.9999 48.3337 90 52.4802C90 56.6266 86.6266 60 82.4801 60C78.3339 60 74.9607 56.6266 74.9607 52.4802C74.9607 50.7477 75.551 49.1516 76.539 47.8788L72.305 43.6448C71.935 43.2748 71.935 42.675 72.305 42.3049C72.675 41.9351 73.2748 41.9351 73.6449 42.3049L77.8788 46.539ZM76.8552 52.4802C76.8552 55.5818 79.3784 58.1053 82.48 58.1053C85.5816 58.1053 88.1052 55.5817 88.1052 52.4802C88.1052 49.3787 85.5818 46.8553 82.48 46.8553C79.3785 46.8553 76.8552 49.3786 76.8552 52.4802ZM81.8217 52.908L84.4083 50.4156C84.7853 50.0524 85.385 50.0639 85.7477 50.4404C86.1108 50.8171 86.0997 51.4168 85.723 51.7799L82.4802 54.9046C82.2968 55.0814 82.0599 55.1699 81.8229 55.1699C81.5864 55.1699 81.3501 55.0819 81.1668 54.9059L79.2385 53.0543C78.861 52.6918 78.8489 52.0922 79.2112 51.7148C79.5735 51.3373 80.1731 51.3252 80.5506 51.6875L81.8217 52.908ZM36.8625 10.2093C36.626 10.2093 36.3896 10.1214 36.2064 9.94523L34.278 8.09379C33.9006 7.73133 33.8885 7.13156 34.2507 6.75422C34.613 6.37652 35.2128 6.36445 35.5902 6.72691L36.8613 7.94742L39.4479 5.45508C39.8247 5.09191 40.4245 5.10328 40.7873 5.4798C41.1504 5.85645 41.1392 6.45621 40.7626 6.81926L37.5198 9.94394C37.3364 10.1208 37.0994 10.2093 36.8625 10.2093ZM39.4479 50.4156L36.8613 52.908L35.5902 51.6875C35.2128 51.3252 34.613 51.3373 34.2507 51.7148C33.8885 52.0922 33.9006 52.6918 34.278 53.0543L36.2064 54.9059C36.3896 55.0819 36.626 55.1699 36.8625 55.1699C37.0994 55.1699 37.3364 55.0814 37.5198 54.9046L40.7626 51.7799C41.1392 51.4168 41.1504 50.8171 40.7873 50.4404C40.4245 50.0639 39.8249 50.0524 39.4479 50.4156ZM69.9585 20.9888C70.201 20.9888 70.4434 20.8963 70.6285 20.7114L77.8787 13.4611C79.1515 14.4491 80.7476 15.0395 82.4799 15.0395C86.6264 15.0395 89.9998 11.6661 89.9998 7.51969C89.9999 3.37324 86.6265 0 82.48 0C78.3338 0 74.9605 3.37324 74.9605 7.51957C74.9605 9.25195 75.5509 10.8483 76.5389 12.1212L69.2887 19.3714C68.9187 19.7415 68.9187 20.3413 69.2887 20.7113C69.4736 20.8963 69.7162 20.9888 69.9585 20.9888ZM82.48 1.89469C85.5817 1.89469 88.1052 4.41809 88.1052 7.51957C88.1052 10.6213 85.5817 13.1447 82.48 13.1447C79.3784 13.1447 76.8552 10.6212 76.8552 7.51957C76.8552 4.4182 79.3784 1.89469 82.48 1.89469ZM42.1211 46.539L46.3552 42.3049C46.7252 41.9351 47.325 41.9351 47.695 42.305C48.065 42.6751 48.065 43.2749 47.695 43.645L43.4609 47.8789C44.449 49.1516 45.0393 50.7478 45.0393 52.4802C45.0393 56.6266 41.666 60 37.5194 60C33.3732 60 30 56.6266 30 52.4802C30 48.3337 33.3732 44.9606 37.5194 44.9606C39.2521 44.9606 40.8483 45.551 42.1211 46.539ZM31.8947 52.4802C31.8947 55.5818 34.418 58.1053 37.5194 58.1053C40.6213 58.1053 43.1448 55.5817 43.1447 52.4802C43.1447 49.3787 40.6213 46.8553 37.5194 46.8553C34.418 46.8553 31.8947 49.3786 31.8947 52.4802ZM67.3325 32.4652L63.1198 30.7759V30.0754C64.2678 29.4166 65.1479 28.3421 65.5508 27.0577C67.0404 26.9712 68.226 25.7325 68.226 24.2217C68.226 23.3201 67.8033 22.5159 67.1465 21.995V20.1109C67.1465 16.31 64.0544 13.2179 60.2537 13.2179H59.7581C55.9572 13.2179 52.865 16.31 52.865 20.1109V21.9866C52.2018 22.5071 51.7747 23.3153 51.7747 24.2217C51.7747 25.744 52.9782 26.9902 54.4839 27.0596C54.8872 28.3433 55.7669 29.417 56.9143 30.0754V30.7703L52.5905 32.4635C52.2191 32.5971 48.9222 33.9018 48.9222 38.0902V41.8025C48.9222 42.3258 49.3462 42.7508 49.8696 42.7508H53.1689C53.6922 42.7508 54.1162 42.3268 54.1162 41.8035C54.1162 41.2801 53.6921 40.8561 53.1689 40.8561H50.817V38.0903C50.817 35.1357 53.1317 34.2822 53.2234 34.2497C53.238 34.2448 53.2525 34.2395 53.2671 34.2337L57.2278 32.6825L59.3446 34.7447C59.5216 34.9171 59.7589 35.0135 60.0057 35.0135L60.0207 35.0134C60.2728 35.0095 60.5129 34.905 60.6878 34.7235L62.6904 32.6452L66.6449 34.2309C66.6616 34.2377 66.6787 34.2439 66.6956 34.2497C66.7197 34.2577 69.1021 35.0931 69.1021 38.0903V40.8561H63.1621H56.9226H56.4832C55.9598 40.8561 55.5358 41.2801 55.5358 41.8035C55.5358 42.3268 55.9598 42.7508 56.4832 42.7508H56.9226H63.1621H70.0495C70.5728 42.7508 70.9968 42.3195 70.9968 41.7961V38.0902C70.9968 33.9173 67.7242 32.607 67.3325 32.4652ZM65.7926 23.4697C65.8729 23.508 65.9593 23.5351 66.0501 23.5495C66.2235 23.7212 66.3312 23.9591 66.3312 24.2218C66.3312 24.5975 66.1107 24.9218 65.7926 25.0746V23.4697ZM53.6695 24.2217C53.6695 24.6105 53.9054 24.945 54.2415 25.0905V23.4784C54.145 23.5275 54.0394 23.5608 53.9274 23.5743C53.768 23.7437 53.6695 23.9712 53.6695 24.2217ZM55.192 20.8164H55.1887C55.156 20.8164 55.1239 20.8181 55.092 20.8213C55.0859 20.8219 55.0799 20.8229 55.0739 20.8239L55.0738 20.8239L55.0617 20.8259L55.0544 20.8268H55.0544C55.0355 20.8293 55.0166 20.8317 54.9982 20.8356C54.9929 20.8367 54.9877 20.8379 54.9825 20.8393C54.9782 20.8404 54.9738 20.8416 54.9695 20.8428L54.9561 20.8464L54.9447 20.8491L54.9447 20.8491L54.9446 20.8491C54.9321 20.8521 54.9196 20.855 54.9075 20.8589C54.8951 20.8627 54.8832 20.8674 54.8712 20.872L54.8588 20.8767L54.8461 20.8812L54.846 20.8812C54.8375 20.8842 54.8291 20.8871 54.8209 20.8907C54.8113 20.8947 54.802 20.8991 54.7928 20.9036C54.7866 20.9066 54.7805 20.9098 54.7744 20.9129L54.7649 20.9176L54.7598 20.9202V20.1114C54.7599 17.3551 57.0022 15.1131 59.7582 15.1131H60.2538C63.0097 15.1131 65.2518 17.3554 65.2518 20.1112V20.9088L65.2415 20.904L65.2268 20.8972C65.2096 20.8896 65.1922 20.883 65.1743 20.8765L65.1672 20.8738C65.1584 20.8705 65.1495 20.8671 65.1405 20.8641C65.1208 20.8575 65.1006 20.8523 65.0804 20.8472L65.0701 20.8442L65.062 20.8418L65.0555 20.8402C63.5569 20.4994 63.0731 18.5203 63.0688 18.5028C62.9867 18.1397 62.6995 17.8584 62.3348 17.7839C61.9701 17.709 61.5953 17.855 61.3774 18.1568C59.4729 20.7889 55.2438 20.8164 55.192 20.8164ZM61.2249 31.4347V31.4318H61.225V30.7243C60.9844 30.758 60.7393 30.7765 60.4895 30.7765H59.5447C59.2951 30.7765 59.0496 30.758 58.809 30.7243V31.5778L59.9842 32.7226L61.2249 31.4347ZM60.4897 28.8818H59.5448C57.6653 28.8818 56.1363 27.3527 56.1363 25.4735V22.6553H56.1362C57.4772 22.5191 59.959 22.0502 61.8301 20.4402C62.2402 21.1727 62.8942 21.9877 63.8978 22.4404V25.4734C63.8979 27.353 62.369 28.8818 60.4897 28.8818Z" fill="url(#paint0_linear_113_3)"/>
<defs>
<linearGradient id="paint0_linear_113_3" x1="30.0649" y1="0" x2="30.0649" y2="59.8701" gradientUnits="userSpaceOnUse">
<stop stop-color="#09A8D6"/>
<stop offset="1" stop-color="#13328F"/>
</linearGradient>
</defs>
</svg>
